<?xml version="1.0" encoding="UTF-8" standalone="no"?>
<!-- Created with Inkscape (http://www.inkscape.org/) -->

<svg
   version="1.1"
   id="svg4449"
   xml:space="preserve"
   width="682.66669"
   height="682.66669"
   viewBox="0 0 682.66669 682.66669"
   xmlns="http://www.w3.org/2000/svg"
   xmlns:svg="http://www.w3.org/2000/svg"><defs
     id="defs4453"><clipPath
       clipPathUnits="userSpaceOnUse"
       id="clipPath4463"><path
         d="M 0,512 H 512 V 0 H 0 Z"
         id="path4461" /></clipPath></defs><g
     id="g4455"
     transform="matrix(1.3333333,0,0,-1.3333333,0,682.66667)"><g
       id="g4457"><g
         id="g4459"
         clip-path="url(#clipPath4463)"><g
           id="g4465"
           transform="translate(336.3154,344.9785)"><path
             d="M 0,0 V -23.183 C 0,-36.386 -10.703,-47.088 -23.905,-47.088 H -43.61"
             style="fill:none;stroke-width:15;stroke-linecap:round;stroke-linejoin:round;stroke-miterlimit:10;stroke-dasharray:none;stroke-opacity:1"
             id="path4467" /></g><g
           id="g4469"
           transform="translate(296.1177,469.7275)"><path
             d="m 0,0 h -0.876 c -4.849,0 -8.779,3.931 -8.779,8.779 0,14.356 -11.637,25.993 -25.993,25.993 h -82.732 c -36.819,0 -66.666,-29.846 -66.666,-66.665 v -44.056 c 0,-6.472 4.095,-12.234 10.207,-14.362 l 16.421,-5.717 c 5.74,-1.999 11.734,2.268 11.724,8.346 l -0.036,31.066 c -0.063,15.108 11.986,27.408 26.912,27.472 l 0.325,0.002 c 4.568,0.02 9.087,-0.69 13.403,-2.077 7.648,-2.457 15.572,-3.947 23.605,-3.913 h 5.917 c 8.032,-0.034 15.957,1.456 23.605,3.913 4.316,1.387 8.835,2.097 13.403,2.077 l 0.325,-0.002 c 14.926,-0.064 26.975,-12.364 26.912,-27.472 l -0.031,-31.069 c -0.008,-6.077 5.986,-10.342 11.725,-8.343 l 16.416,5.716 c 6.111,2.129 10.206,7.891 10.206,14.362 v 49.957 C 25.993,-11.638 14.355,0 0,0 Z"
             style="fill:none;stroke-width:15;stroke-linecap:round;stroke-linejoin:round;stroke-miterlimit:10;stroke-dasharray:none;stroke-opacity:1"
             id="path4471" /></g><g
           id="g4473"
           transform="translate(131.334,334.1152)"><path
             d="m 0,0 h 0.146 c 0.575,-22.659 10.074,-44.431 27.133,-59.172 13.733,-11.867 33.011,-22.194 58.42,-22.373 25.408,0.396 44.599,10.887 58.233,22.871 16.599,14.591 25.857,35.876 26.582,58.056"
             style="fill:none;stroke-width:15;stroke-linecap:round;stroke-linejoin:round;stroke-miterlimit:10;stroke-dasharray:none;stroke-opacity:1"
             id="path4475" /></g><g
           id="g4477"
           transform="translate(111.0718,397.2012)"><path
             d="m 0,0 c -8.08,-1.487 -14.205,-8.555 -14.205,-17.063 v -29.671 c 0,-9.59 7.775,-17.365 17.365,-17.365 h 17.102 v 42.813"
             style="fill:none;stroke-width:15;stroke-linecap:round;stroke-linejoin:round;stroke-miterlimit:10;stroke-dasharray:none;stroke-opacity:1"
             id="path4479" /></g><g
           id="g4481"
           transform="translate(301.8481,375.9141)"><path
             d="m 0,0 v -42.812 h 17.103 c 9.59,0 17.364,7.775 17.364,17.365 V 4.224 c 0,8.508 -6.125,15.576 -14.205,17.063"
             style="fill:none;stroke-width:15;stroke-linecap:round;stroke-linejoin:round;stroke-miterlimit:10;stroke-dasharray:none;stroke-opacity:1"
             id="path4483" /></g><g
           id="g4485"
           transform="translate(275.5459,285.6279)"><path
             d="m 0,0 h -19.605 c -7.48,0 -13.543,6.064 -13.543,13.544 0,7.479 6.063,13.543 13.543,13.543 H 0 c 7.479,0 13.543,-6.064 13.543,-13.543 C 13.543,6.064 7.479,0 0,0 Z"
             style="fill:none;stroke-width:15;stroke-linecap:round;stroke-linejoin:round;stroke-miterlimit:10;stroke-dasharray:none;stroke-opacity:1"
             id="path4487" /></g><g
           id="g4489"
           transform="translate(92.8198,27.582)"><path
             d="M 0,0 V 42.52"
             style="fill:none;stroke-width:15;stroke-linecap:round;stroke-linejoin:round;stroke-miterlimit:10;stroke-dasharray:none;stroke-opacity:1"
             id="path4491" /></g><g
           id="g4493"
           transform="translate(340.6401,212.7187)"><path
             d="M 0,0 C -9.476,4.85 -19.627,8.643 -30.315,11.21"
             style="fill:none;stroke-width:15;stroke-linecap:round;stroke-linejoin:round;stroke-miterlimit:10;stroke-dasharray:none;stroke-opacity:1"
             id="path4495" /></g><g
           id="g4497"
           transform="translate(143.8037,236.7959)"><path
             d="m 0,0 -20.96,-12.853 48.402,-48.476 c 4.614,-4.492 11.877,-4.769 16.82,-0.641 L 72.788,-38.142 12.817,-0.098 C 8.914,2.379 3.941,2.416 0,0 Z"
             style="fill:none;stroke-width:15;stroke-linecap:round;stroke-linejoin:round;stroke-miterlimit:10;stroke-dasharray:none;stroke-opacity:1"
             id="path4499" /></g><g
           id="g4501"
           transform="translate(289.3784,236.7959)"><path
             d="m 0,0 20.96,-12.853 -48.402,-48.476 c -4.614,-4.492 -11.877,-4.769 -16.819,-0.641 l -28.526,23.828 59.97,38.044 C -8.914,2.379 -3.941,2.416 0,0 Z"
             style="fill:none;stroke-width:15;stroke-linecap:round;stroke-linejoin:round;stroke-miterlimit:10;stroke-dasharray:none;stroke-opacity:1"
             id="path4503" /></g><g
           id="g4505"
           transform="translate(230.3682,150.6143)"><path
             d="M 0,0 14.312,24.581"
             style="fill:none;stroke-width:15;stroke-linecap:round;stroke-linejoin:round;stroke-miterlimit:10;stroke-dasharray:none;stroke-opacity:1"
             id="path4507" /></g><g
           id="g4509"
           transform="translate(188.502,175.1953)"><path
             d="M 0,0 14.312,-24.581"
             style="fill:none;stroke-width:15;stroke-linecap:round;stroke-linejoin:round;stroke-miterlimit:10;stroke-dasharray:none;stroke-opacity:1"
             id="path4511" /></g><g
           id="g4513"
           transform="translate(252.2114,27.3779)"><path
             d="M 0,0 -21.843,123.236 H -35.62 -49.397 L -71.241,0"
             style="fill:none;stroke-width:15;stroke-linecap:round;stroke-linejoin:round;stroke-miterlimit:10;stroke-dasharray:none;stroke-opacity:1"
             id="path4515" /></g><g
           id="g4517"
           transform="translate(451.5952,90.126)"><path
             d="m 0,0 h -42.401 c 0,0 22.45,40.692 26.154,45.238 3.747,4.596 7.294,1.73 7.632,-2.325 0.338,-4.055 -0.169,-62.841 -0.169,-62.841"
             style="fill:none;stroke-width:15;stroke-linecap:round;stroke-linejoin:round;stroke-miterlimit:10;stroke-dasharray:none;stroke-opacity:1"
             id="path4519" /></g><g
           id="g4521"
           transform="translate(385.7896,68.0547)"><path
             d="m 0,0 c 0,0 -32.852,-0.413 -34.408,0.105 -1.556,0.519 2.495,3.259 24.033,34.034 4.023,5.747 6.237,10.595 7.179,14.658 l 0.334,2.612 c 0,9.542 -7.736,17.278 -17.278,17.278 -8.396,0 -15.393,-5.99 -16.953,-13.929"
             style="fill:none;stroke-width:15;stroke-linecap:round;stroke-linejoin:round;stroke-miterlimit:10;stroke-dasharray:none;stroke-opacity:1"
             id="path4523" /></g><g
           id="g4525"
           transform="translate(493.8765,102.8086)"><path
             d="m 0,0 c 0,-52.638 -42.671,-95.309 -95.309,-95.309 -52.637,0 -95.309,42.671 -95.309,95.309 0,52.638 42.672,95.309 95.309,95.309 C -42.671,95.309 0,52.638 0,0 Z"
             style="fill:none;stroke-width:15;stroke-linecap:round;stroke-linejoin:round;stroke-miterlimit:10;stroke-dasharray:none;stroke-opacity:1"
             id="path4527" /></g><g
           id="g4529"
           transform="translate(122.856,223.9307)"><path
             d="m 0,0 c -61.157,-14.693 -104.732,-69.496 -104.732,-132.938 v -30.101 c 0,-18.509 15.004,-33.514 33.513,-33.514 h 249.347"
             style="fill:none;stroke-width:15;stroke-linecap:round;stroke-linejoin:round;stroke-miterlimit:10;stroke-dasharray:none;stroke-opacity:1"
             id="path4531" /></g><g
           id="g4533"
           transform="translate(173.1074,264.5449)"><path
             d="m 0,0 v -14.31 c 0,-7.469 -3.613,-14.064 -9.131,-18.203"
             style="fill:none;stroke-width:15;stroke-linecap:round;stroke-linejoin:round;stroke-miterlimit:10;stroke-dasharray:none;stroke-opacity:1"
             id="path4535" /></g><g
           id="g4537"
           transform="translate(269.1909,232.0225)"><path
             d="M 0,0 C -5.588,4.187 -9.116,10.85 -9.116,18.213 V 32.437"
             style="fill:none;stroke-width:15;stroke-linecap:round;stroke-linejoin:round;stroke-miterlimit:10;stroke-dasharray:none;stroke-opacity:1"
             id="path4539" /></g></g></g></g></svg>
