<svg height="512pt" viewBox="0 0 512 512" width="512pt" xmlns="http://www.w3.org/2000/svg"><path d="m94.269531 169.804688c0 .25-.148437.472656-.148437.726562.054687.417969.136718.832031.25 1.238281 2.484375 41.160157 20.523437 79.835938 50.457031 108.195313 21.976563 20.890625 34.402344 49.890625 34.371094 80.210937v6.621094c-10.117188-.042969-19.300781 5.898437-23.40625 15.148437-4.109375 9.246094-2.355469 20.046876 4.464843 27.519532-6.820312 7.476562-8.574218 18.273437-4.464843 27.523437 4.105469 9.246094 13.289062 15.1875 23.40625 15.144531h9.121093c4.277344 34.125 33.289063 59.726563 67.679688 59.726563s63.402344-25.601563 67.679688-59.726563h9.121093c10.117188.042969 19.300781-5.898437 23.40625-15.144531 4.109375-9.25 2.355469-20.046875-4.464843-27.523437 6.820312-7.472656 8.574218-18.273438 4.464843-27.519532-4.105469-9.25-13.289062-15.191406-23.40625-15.148437v-6.621094c-.015625-30.320312 12.421875-59.320312 34.398438-80.210937 45.945312-43.300782 62.578125-109.332032 42.628906-169.230469-19.953125-59.902344-72.859375-102.769531-135.59375-109.871094-8.679687-.8828122-17.414063-1.089843-26.128906-.613281-.21875-.019531-.417969-.128906-.640625-.128906-.339844.046875-.675782.113281-1.003906.203125-36.605469 1.953125-71.433594 16.410156-98.65625 40.960937-34.285157 30.765625-53.894532 74.648438-53.9375 120.714844 0 2.617188.28125 5.195312.402343 7.804688zm62.292969 97.742187c-24.898438-23.261719-40.695312-54.628906-44.5625-88.480469h31.105469c.414062-.054687.824219-.136718 1.226562-.25.617188-.058594 1.226563-.179687 1.820313-.367187.578125-.261719 1.128906-.585938 1.636718-.972657.359376-.179687.703126-.386718 1.03125-.621093.0625 0 .078126-.113281.128907-.164063.460937-.492187.859375-1.035156 1.195312-1.621094.265625-.339843.511719-.703124.726563-1.082031.15625-.457031.273437-.929687.347656-1.410156.191406-.597656.320312-1.214844.375-1.839844 0-.070312 0-.128906 0-.207031-.050781-.414062-.136719-.828125-.253906-1.226562-.050782-.621094-.171875-1.230469-.367188-1.820313-.257812-.582031-.585937-1.132813-.972656-1.636719-.179688-.363281-.386719-.710937-.617188-1.042968-2.792968-3.113282-4.332031-7.15625-4.316406-11.339844 0-9.425782 7.640625-17.066406 17.066406-17.066406 9.425782 0 17.066407 7.640624 17.066407 17.066406.003906 4.191406-1.550781 8.234375-4.359375 11.339844-.234375.332031-.4375.679687-.613282 1.042968-.390624.503906-.714843 1.054688-.972656 1.636719-.195312.589844-.320312 1.199219-.367187 1.820313-.121094.398437-.207031.8125-.257813 1.226562v.207031c.058594.628907.183594 1.25.375 1.851563.078125.472656.195313.941406.351563 1.398437.214843.382813.460937.75.734375 1.09375.328125.582031.726562 1.125 1.183594 1.609375.050781.050782.070312.121094.128906.164063.414062.316406.855468.585937 1.324218.808593.386719.292969.800782.546876 1.234376.761719 1.003906.414063 2.074218.628907 3.160156.640625h57.8125v68.265625c.050781.414063.132812.824219.246094 1.230469.042968 1.269531.515624 2.488281 1.339843 3.453125.183594.363281.390625.710937.625 1.042969 0 .050781.109375.066406.160157.117187.492187.464844 1.042968.871094 1.628906 1.203125.34375.265625.703125.507813 1.078125.726563.457031.152343.929687.269531 1.40625.351562.601562.1875 1.21875.3125 1.84375.367188h.203125c1.019531-.207031 2.039062-.410157 3.058594-.617188.578124-.257812 1.125-.585937 1.628906-.972656.359375-.183594.707031-.390625 1.039062-.621094 3.117188-2.792969 7.15625-4.332031 11.34375-4.320312 9.425782 0 17.066406 7.640625 17.066406 17.066406s-7.640624 17.070313-17.066406 17.070313c-4.191406.007812-8.230468-1.546876-11.335937-4.363282-.34375-.242187-.703125-.460937-1.082031-.648437-.496094-.371094-1.03125-.6875-1.59375-.945313-.605469-.195312-1.230469-.320312-1.863282-.375-.390625-.113281-.789062-.191406-1.195312-.242187-.0625.011719-.128906.027343-.195313.042969-.671875.050781-1.335937.183593-1.980469.394531-.425781.074219-.847656.179687-1.261718.316406-.425782.230469-.828125.5-1.203125.808594-.542969.3125-1.050781.6875-1.511719 1.109375-.050781.058594-.117188.078125-.167969.128906-.25.34375-.464843.710938-.648437 1.09375-.375.488281-.695313 1.023438-.949219 1.585938-.195313.609374-.324219 1.238281-.375 1.878906-.109375.382812-.1875.777344-.238281 1.175781v81.40625h-42.667969v-6.621094c.03125-35.019531-14.339844-68.515625-39.738281-92.628906zm99.4375 227.25c-24.972656-.03125-46.292969-18.046875-50.492188-42.664063h100.984376c-4.199219 24.617188-25.519532 42.632813-50.492188 42.664063zm76.800781-59.730469h-153.601562c-4.710938 0-8.53125-3.820312-8.53125-8.535156 0-4.710938 3.820312-8.53125 8.53125-8.53125h153.601562c4.710938 0 8.53125 3.820312 8.53125 8.53125 0 4.714844-3.820312 8.535156-8.53125 8.535156zm8.53125-42.667968c0 4.714843-3.820312 8.535156-8.53125 8.535156h-153.601562c-4.710938 0-8.53125-3.820313-8.53125-8.535156 0-4.710938 3.820312-8.535157 8.53125-8.535157h153.601562c4.710938 0 8.53125 3.824219 8.53125 8.535157zm14.167969-124.875c-25.40625 24.121093-39.785156 57.621093-39.765625 92.652343v6.621094h-59.734375v-67.523437c2.78125.773437 5.648438 1.179687 8.535156 1.222656 13.347656.195312 25.585938-7.410156 31.320313-19.46875 5.734375-12.054688 3.914062-26.347656-4.65625-36.582032-8.574219-10.230468-22.324219-14.53125-35.199219-10.996093v-54.382813h43.886719c-3.816407 13.886719 1.496093 28.675782 13.277343 36.960938 11.777344 8.289062 27.492188 8.289062 39.273438 0 11.78125-8.285156 17.09375-23.074219 13.277344-36.960938h34.371094c-3.914063 33.835938-19.714844 65.183594-44.585938 88.457032zm-83.117188-249.695313c66.828126 7.699219 119.644532 60.234375 127.703126 127.019531.652343 5.691406.980468 11.417969.980468 17.152344h-49.238281c-.40625.046875-.808594.128906-1.203125.246094-.625.046875-1.246094.171875-1.84375.367187-.890625.53125-1.78125 1.0625-2.667969 1.59375-.0625 0-.078125.113281-.128906.164063-.460937.488281-.859375 1.027344-1.1875 1.613281-.273437.34375-.519531.707031-.734375 1.089844-.15625.457031-.273438.925781-.347656 1.402343-.195313.601563-.320313 1.222657-.375 1.851563 0 .066406-.042969.125-.042969.203125.050781.417969.136719.828125.253906 1.230469.050781.617187.171875 1.226562.367188 1.816406.261719.582031.585937 1.132813.972656 1.636719.179687.363281.382813.710937.617187 1.042968 2.808594 3.109376 4.363282 7.148438 4.359376 11.339844 0 9.425782-7.640626 17.066406-17.066407 17.066406s-17.066406-7.640624-17.066406-17.066406c-.003906-4.191406 1.550781-8.230468 4.359375-11.339844.230469-.332031.433594-.679687.613281-1.042968.390625-.503906.71875-1.054688.972657-1.636719.195312-.589844.320312-1.199219.367187-1.816406.121094-.402344.207031-.8125.257813-1.230469 0-.078125-.042969-.136719-.042969-.203125-.058594-.628906-.183594-1.246094-.375-1.84375-.078125-.480469-.195313-.949219-.351563-1.410156-.214844-.375-.457031-.738281-.722656-1.082031-.335938-.585938-.738281-1.128907-1.195312-1.621094-.050782-.050782-.070313-.121094-.128907-.164063-.332031-.230469-.679687-.441406-1.042969-.621093-.503906-.382813-1.050781-.710938-1.628906-.972657-.597656-.195312-1.214844-.320312-1.84375-.367187-.390625-.117188-.792968-.199219-1.203125-.246094h-57.769531v-57.773438c-.050781-.414062-.132812-.824218-.246094-1.226562-.054687-.617188-.175781-1.230469-.367187-1.820312-.261719-.578126-.585938-1.128907-.972657-1.636719-.183593-.359375-.390624-.710938-.625-1.039063 0-.054687-.109374-.070312-.160156-.121094-.480468-.453124-1.015625-.847656-1.589844-1.179687-.351562-.277344-.722656-.527344-1.117187-.75-.449219-.148437-.90625-.261719-1.375-.339844-.605469-.191406-1.230469-.320312-1.867187-.375-.078126 0-.136719 0-.214844 0-.417969.050781-.828125.132813-1.234375.246094-.617188.058594-1.222657.179687-1.808594.367187-.585937.261719-1.140625.589844-1.648437.980469-.359376.175781-.707032.382813-1.03125.617188-3.117188 2.792969-7.15625 4.332031-11.34375 4.316406-9.425782 0-17.066407-7.640625-17.066407-17.066406s7.640625-17.066407 17.066407-17.066407c4.191406-.003906 8.234374 1.550782 11.34375 4.359376.332031.230468.679687.441406 1.039062.625.507812.382812 1.058594.707031 1.640625.972656.589844.183594 1.199219.308594 1.816406.363281.402344.113281.8125.199219 1.226563.25h.214844c.628906-.054687 1.25-.179687 1.851562-.375.472656-.078125.9375-.191406 1.390625-.34375.386719-.21875.753906-.46875 1.101563-.742187.578124-.328126 1.117187-.726563 1.605468-1.183594.050782-.050782.117188-.070313.160156-.121094.234376-.332031.441407-.679688.625-1.039062.386719-.507813.710938-1.058594.972657-1.640626.191406-.589843.3125-1.199218.367187-1.816406.113282-.417968.195313-.84375.246094-1.273437v-49.234375c5.472656.003906 10.941406.304687 16.382812.894531zm-113.183593 36.128906c22.171875-20.015625 50.054687-32.589843 79.734375-35.96875v34.296875c-13.886719-3.816406-28.675782 1.496094-36.964844 13.277344-8.285156 11.777344-8.285156 27.492188 0 39.273438 8.289062 11.78125 23.078125 17.09375 36.964844 13.277343v43.886719h-43.886719c3.816406-13.890625-1.496094-28.679688-13.277344-36.964844-11.777343-8.285156-27.492187-8.285156-39.273437 0s-17.09375 23.074219-13.277344 36.964844h-18.285156c.035156-41.230469 17.578125-80.503906 48.265625-108.042969zm0 0"/><path d="m503.464844 153.464844h-59.730469c-4.714844 0-8.535156 3.820312-8.535156 8.535156 0 4.710938 3.820312 8.53125 8.535156 8.53125h59.730469c4.714844 0 8.535156-3.820312 8.535156-8.53125 0-4.714844-3.820312-8.535156-8.535156-8.535156zm0 0"/><path d="m418.59375 76.664062c1.5.003907 2.972656-.390624 4.265625-1.140624l51.722656-29.867188c4.046875-2.375 5.417969-7.566406 3.074219-11.628906-2.347656-4.0625-7.53125-5.46875-11.609375-3.152344l-51.71875 29.867188c-3.34375 1.929687-4.976563 5.867187-3.976563 9.597656 1 3.730468 4.378907 6.324218 8.242188 6.324218zm0 0"/><path d="m411.195312 251.597656c-2.355468 4.082032-.957031 9.300782 3.125 11.65625l51.71875 29.867188c4.078126 2.320312 9.261719.910156 11.609376-3.152344 2.34375-4.0625.972656-9.253906-3.074219-11.625l-51.722657-29.867188c-4.082031-2.359374-9.300781-.960937-11.65625 3.121094zm0 0"/><path d="m8.535156 170.53125h59.730469c4.714844 0 8.535156-3.820312 8.535156-8.53125 0-4.714844-3.820312-8.535156-8.535156-8.535156h-59.730469c-4.714844 0-8.535156 3.820312-8.535156 8.535156 0 4.710938 3.820312 8.53125 8.535156 8.53125zm0 0"/><path d="m37.425781 45.65625 51.722657 29.867188c2.640624 1.546874 5.910156 1.5625 8.566406.035156 2.652344-1.523438 4.289062-4.355469 4.28125-7.417969-.007813-3.0625-1.652344-5.886719-4.316406-7.398437l-51.71875-29.867188c-2.640626-1.546875-5.910157-1.5625-8.566407-.039062-2.65625 1.527343-4.289062 4.359374-4.28125 7.417968.003907 3.0625 1.652344 5.886719 4.3125 7.402344zm0 0"/><path d="m89.148438 248.476562-51.722657 29.867188c-2.660156 1.511719-4.308593 4.335938-4.3125 7.398438-.007812 3.0625 1.625 5.890624 4.28125 7.417968 2.65625 1.523438 5.925781 1.511719 8.566407-.039062l51.71875-29.867188c4.046874-2.371094 5.421874-7.566406 3.074218-11.628906-2.34375-4.058594-7.527344-5.46875-11.605468-3.148438zm0 0"/></svg>