<?xml version="1.0" encoding="UTF-8" standalone="no"?>
<!-- Created with Inkscape (http://www.inkscape.org/) -->

<svg
   version="1.1"
   id="svg1353"
   xml:space="preserve"
   width="682.66669"
   height="682.66669"
   viewBox="0 0 682.66669 682.66669"
   xmlns="http://www.w3.org/2000/svg"
   xmlns:svg="http://www.w3.org/2000/svg"><defs
     id="defs1357"><clipPath
       clipPathUnits="userSpaceOnUse"
       id="clipPath1367"><path
         d="M 0,512 H 512 V 0 H 0 Z"
         id="path1365" /></clipPath></defs><g
     id="g1359"
     transform="matrix(1.3333333,0,0,-1.3333333,0,682.66667)"><g
       id="g1361"><g
         id="g1363"
         clip-path="url(#clipPath1367)"><g
           id="g1369"
           transform="translate(54.3335,204.1509)"><path
             d="m 0,0 c 3.19,-7.78 6.323,-15.3 9.307,-22.28 13.985,-32.708 19.705,-41.209 44.921,-65.872 l 38.334,-37.494 c -4.452,-18.072 -8.904,-36.146 -13.355,-54.218 -1.889,-7.049 3.211,-14.287 10.016,-14.287 h 78.3 c 10.71,0 16.648,3.908 20.06,13.147 36.953,100.081 -55.267,133.678 -81.424,167.254 -5.454,7.002 -37.721,50.218 -43.176,57.22 -5.692,7.306 -16.31,8.652 -23.595,2.987 C 32.103,40.793 33.27,31.551 36.492,22.873 44.941,0.118 55.605,-23.26 66.167,-41.363 m -31.04,82.34 -45.229,78.613 c -14.162,23.648 -41.679,7.559 -32.339,-13.605 1.788,-3.943 5.013,-11.918 9.149,-22.345"
             style="fill:none;stroke-width:20;stroke-linecap:round;stroke-linejoin:round;stroke-miterlimit:2.613;stroke-dasharray:none;stroke-opacity:1"
             id="path1371" /></g><g
           id="g1373"
           transform="translate(358.29,199.3262)"><path
             d="m 0,0 c 11.403,15.116 32.12,42.811 36.393,48.295 5.692,7.306 16.31,8.651 23.594,2.987 7.285,-5.664 6.118,-14.907 2.897,-23.584 C 54.435,4.943 43.771,-18.436 33.209,-36.538 m 31.039,82.339 45.23,78.614 c 14.162,23.647 41.678,7.559 32.338,-13.605 C 135.271,96.379 109.511,28.018 90.068,-17.455 76.084,-50.163 70.363,-58.664 45.147,-83.327 L 6.814,-120.821 c 4.452,-18.073 8.904,-36.146 13.355,-54.219 1.889,-7.048 -3.212,-14.287 -10.017,-14.287 h -78.299 c -10.71,0 -16.649,3.909 -20.06,13.148 -20.011,54.196 -2.139,88.891 22.606,114.649"
             style="fill:none;stroke-width:20;stroke-linecap:round;stroke-linejoin:round;stroke-miterlimit:2.613;stroke-dasharray:none;stroke-opacity:1"
             id="path1375" /></g><g
           id="g1377"
           transform="translate(37.5596,245.9204)"><path
             d="M 0,0 H 0.007"
             style="fill:none;stroke-width:20;stroke-linecap:round;stroke-linejoin:round;stroke-miterlimit:2.613;stroke-dasharray:none;stroke-opacity:1"
             id="path1379" /></g><g
           id="g1381"
           transform="translate(326.5723,167.4038)"><path
             d="M 0,0 H 0.007"
             style="fill:none;stroke-width:20;stroke-linecap:round;stroke-linejoin:round;stroke-miterlimit:2.613;stroke-dasharray:none;stroke-opacity:1"
             id="path1383" /></g><g
           id="g1385"
           transform="translate(255.9995,462)"><path
             d="m 0,0 v 0 c 18.857,0 34.286,-15.428 34.286,-34.286 v -17.143 c 0,-18.857 -15.429,-34.285 -34.286,-34.285 -18.857,0 -34.286,15.428 -34.286,34.285 v 17.143 C -34.286,-15.428 -18.857,0 0,0 Z"
             style="fill:none;stroke-width:20;stroke-linecap:round;stroke-linejoin:round;stroke-miterlimit:22.926;stroke-dasharray:none;stroke-opacity:1"
             id="path1387" /></g><g
           id="g1389"
           transform="translate(282.7168,387.1084)"><path
             d="M 0,0 C 19.687,-9.871 33.282,-30.264 33.282,-53.679 V -70.82 H -86.717 v 17.141 c 0,23.448 13.633,43.863 33.362,53.719"
             style="fill:none;stroke-width:20;stroke-linecap:round;stroke-linejoin:round;stroke-miterlimit:22.926;stroke-dasharray:none;stroke-opacity:1"
             id="path1391" /></g><g
           id="g1393"
           transform="translate(156,502.0015)"><path
             d="m 0,0 v 0 c 18.857,0 34.286,-15.428 34.286,-34.286 v -17.143 c 0,-18.857 -15.429,-34.285 -34.286,-34.285 -18.857,0 -34.286,15.428 -34.286,34.285 v 17.143 C -34.286,-15.428 -18.857,0 0,0 Z"
             style="fill:none;stroke-width:20;stroke-linecap:round;stroke-linejoin:round;stroke-miterlimit:22.926;stroke-dasharray:none;stroke-opacity:1"
             id="path1395" /></g><g
           id="g1397"
           transform="translate(200.5513,356.2891)"><path
             d="m 0,0 h -104.551 v 17.142 c 0,23.447 13.634,43.862 33.362,53.718 m 53.355,-0.039 C 0.589,61.583 13.677,43.131 15.282,21.611"
             style="fill:none;stroke-width:20;stroke-linecap:round;stroke-linejoin:round;stroke-miterlimit:22.926;stroke-dasharray:none;stroke-opacity:1"
             id="path1399" /></g><g
           id="g1401"
           transform="translate(355.999,502.0015)"><path
             d="m 0,0 v 0 c 18.856,0 34.285,-15.428 34.285,-34.286 v -17.143 c 0,-18.857 -15.429,-34.285 -34.285,-34.285 -18.857,0 -34.286,15.428 -34.286,34.285 v 17.143 C -34.286,-15.428 -18.857,0 0,0 Z"
             style="fill:none;stroke-width:20;stroke-linecap:round;stroke-linejoin:round;stroke-miterlimit:22.926;stroke-dasharray:none;stroke-opacity:1"
             id="path1403" /></g><g
           id="g1405"
           transform="translate(296.166,377.9004)"><path
             d="M 0,0 C 1.606,21.551 14.731,40.024 33.194,49.249 M 86.55,49.209 C 106.236,39.338 119.833,18.945 119.833,-4.47 V -21.611 H 15.281"
             style="fill:none;stroke-width:20;stroke-linecap:round;stroke-linejoin:round;stroke-miterlimit:22.926;stroke-dasharray:none;stroke-opacity:1"
             id="path1407" /></g></g></g></g></svg>
