<svg xmlns="http://www.w3.org/2000/svg" width="512" height="472" viewBox="0 0 512 472">
<g>
<path d="M 5.09 470.91 C-0.16,468.81 0.07,473.14 0.03,374.94 C0.00,284.15 0.02,283.36 2.04,281.19 C4.78,278.25 10.22,278.25 12.96,281.19 C14.98,283.35 15.00,284.23 15.00,365.77 C15.00,411.09 15.38,448.02 15.84,447.83 C16.31,447.65 58.61,415.13 109.86,375.56 C165.17,332.86 202.66,303.26 202.12,302.72 C201.63,302.23 159.43,278.47 108.36,249.94 L 15.50 198.05 L 15.00 226.00 C14.56,250.65 14.30,254.18 12.76,255.97 C10.36,258.77 4.72,258.69 2.04,255.81 C0.07,253.69 0.00,252.47 -0.00,218.00 C-0.00,184.94 0.13,182.24 1.82,180.44 C2.82,179.37 18.55,167.02 36.79,153.00 L 69.94 127.50 L 69.97 91.44 C70.00,56.55 70.07,55.31 72.04,53.19 L 74.08 51.00 L 121.43 51.00 L 168.78 51.00 L 194.64 31.04 C228.85,4.64 236.75,0.87 257.76,0.93 C278.17,0.98 285.84,4.70 319.37,30.84 L 345.24 51.00 L 391.58 51.00 L 437.92 51.00 L 439.96 53.19 C441.93,55.31 442.00,56.53 442.00,91.01 L 442.00 126.65 L 475.02 152.44 C493.17,166.62 508.92,179.36 510.02,180.75 C511.97,183.24 512.00,185.14 512.00,324.09 C512.00,427.21 511.70,465.57 510.86,467.40 C510.24,468.78 508.37,470.37 506.71,470.95 C502.72,472.34 8.58,472.30 5.09,470.91 ZM 480.78 455.35 C479.88,454.45 464.38,442.17 446.34,428.07 C428.30,413.97 412.85,401.21 412.02,399.71 C410.66,397.28 410.66,396.71 412.03,394.26 C414.12,390.54 417.55,388.94 420.87,390.14 C422.32,390.66 439.92,403.94 460.00,419.64 L 496.50 448.20 L 496.76 385.52 C496.90,351.05 496.90,295.02 496.76,261.01 L 496.50 199.17 L 441.50 230.15 C411.25,247.19 385.29,261.38 383.82,261.68 C377.81,262.90 373.48,253.60 378.10,249.40 C379.25,248.36 390.62,241.61 403.35,234.42 L 426.50 221.33 L 426.76 143.67 L 427.01 66.00 L 256.01 66.00 L 85.00 66.00 L 85.00 142.85 L 85.00 219.71 L 149.25 255.55 C184.59,275.26 214.19,291.80 215.04,292.31 C216.14,292.96 217.73,292.44 220.54,290.51 C226.15,286.67 234.45,283.12 241.87,281.39 C250.12,279.46 265.84,279.52 273.50,281.51 C279.35,283.03 290.86,288.16 296.13,291.60 L 298.76 293.32 L 324.75 278.66 C352.13,263.22 355.12,262.12 359.00,266.00 C361.26,268.26 361.62,272.79 359.75,275.27 C359.06,276.18 348.15,282.75 335.50,289.87 C322.85,296.99 312.52,303.20 312.55,303.66 C312.58,304.12 331.48,319.25 354.55,337.27 C377.62,355.30 397.06,370.80 397.75,371.71 C399.46,373.99 399.32,378.10 397.44,380.78 C396.31,382.40 394.89,382.99 392.19,382.98 C388.86,382.96 383.52,379.06 337.50,343.02 C308.36,320.20 283.93,301.81 280.50,300.10 C263.22,291.51 240.90,293.50 226.00,304.96 C137.85,372.78 33.01,453.75 31.53,455.14 C29.61,456.95 35.28,457.00 255.99,457.00 C466.19,457.00 482.31,456.88 480.78,455.35 ZM 467.01 198.56 C479.38,191.59 489.88,185.51 490.34,185.05 C491.00,184.40 473.91,170.49 443.25,146.72 C442.26,145.95 442.00,152.55 442.00,178.98 C442.00,205.37 442.26,212.11 443.26,211.73 C443.96,211.46 454.65,205.54 467.01,198.56 ZM 69.62 147.29 C69.14,146.81 22.00,183.07 22.00,183.92 C22.00,184.24 32.69,190.46 45.75,197.75 L 69.50 210.99 L 69.76 179.34 C69.91,161.94 69.85,147.51 69.62,147.29 ZM 318.83 50.08 C318.65,49.57 311.00,43.32 301.83,36.19 C279.28,18.64 273.54,16.07 256.86,16.02 C248.01,16.00 239.07,18.10 232.34,21.77 C228.13,24.08 195.09,49.29 195.04,50.25 C195.02,50.66 222.94,51.00 257.08,51.00 C294.68,51.00 319.04,50.64 318.83,50.08 ZM 139.09 224.91 C133.92,222.84 132.42,217.08 136.04,213.19 L 138.08 211.00 L 256.00 211.00 L 373.92 211.00 L 375.96 213.19 C379.69,217.19 378.07,222.88 372.60,224.96 C368.99,226.34 142.53,226.29 139.09,224.91 ZM 136.07 171.37 C133.32,167.87 133.45,164.45 136.45,161.45 L 138.91 159.00 L 171.32 159.00 C202.59,159.00 203.82,159.07 206.37,161.07 C209.67,163.67 209.98,169.02 207.00,172.00 C205.08,173.92 203.67,174.00 171.57,174.00 L 138.15 174.00 L 136.07 171.37 ZM 236.94 172.16 C233.64,169.48 233.86,164.38 237.41,161.32 L 240.16 158.96 L 307.17 159.23 L 374.18 159.50 L 376.09 161.86 C378.56,164.92 378.51,168.08 375.93,171.37 L 373.85 174.00 L 306.54 174.00 C242.61,174.00 239.11,173.91 236.94,172.16 ZM 184.09 122.91 C178.92,120.84 177.42,115.08 181.04,111.19 L 183.08 109.00 L 256.00 109.00 L 328.92 109.00 L 330.96 111.19 C334.69,115.19 333.07,120.88 327.60,122.96 C324.01,124.33 187.51,124.28 184.09,122.91 Z" fill="inherit"/>
</g>
</svg>