<svg id="Layer_1" enable-background="new 0 0 512 512" height="512" viewBox="0 0 512 512" width="512" xmlns="http://www.w3.org/2000/svg"><path d="m504 288.441v-64.882c0-3.93-2.854-7.278-6.735-7.899l-39.689-6.353c-5.138-22.288-13.878-43.369-26.038-62.804l23.587-32.578c2.306-3.183 1.956-7.569-.822-10.348l-45.879-45.878c-2.778-2.778-7.164-3.128-10.349-.823l-32.578 23.587c-19.441-12.162-40.52-20.901-62.804-26.039l-6.353-39.688c-.621-3.881-3.97-6.736-7.9-6.736h-64.882c-3.93 0-7.278 2.855-7.899 6.735l-6.353 39.688c-22.287 5.138-43.368 13.877-62.805 26.038l-32.577-23.586c-3.182-2.305-7.569-1.955-10.349.823l-45.879 45.878c-2.778 2.779-3.128 7.165-.822 10.349l23.587 32.577c-12.166 19.448-20.905 40.525-26.039 62.804l-39.688 6.353c-3.88.622-6.734 3.97-6.734 7.9v64.882c0 3.93 2.854 7.278 6.735 7.899l39.688 6.353c5.138 22.286 13.878 43.367 26.039 62.804l-23.587 32.578c-2.306 3.183-1.956 7.569.822 10.348l45.879 45.878c2.781 2.78 7.167 3.126 10.349.823l32.577-23.587c19.448 12.166 40.528 20.906 62.805 26.039l6.353 39.688c.621 3.88 3.97 6.735 7.899 6.735h64.882c3.93 0 7.278-2.855 7.899-6.735l5.7-35.605c20.837 25.804 52.714 42.34 88.386 42.34 62.625.001 113.574-50.948 113.574-113.573 0-35.672-16.537-67.55-42.341-88.387l35.605-5.699c3.882-.62 6.736-3.968 6.736-7.899zm-105.097-11.272c-2.799-.208-5.625-.316-8.477-.316-17.174 0-33.465 3.839-48.073 10.692v-12.65c0-18.903-14.314-33.294-39.274-39.485-8.698-2.157-17.387-3.703-26.051-4.679 13.249-9.299 22.232-27.085 22.232-47.466 0-27.566-16.576-44.691-43.259-44.691-26.684 0-43.26 17.125-43.26 44.691 0 20.337 8.945 38.089 22.147 47.404-8.741.974-17.426 2.544-26.032 4.757-25.284 6.499-39.209 20.516-39.209 39.469v71.177c0 4.418 3.582 8 8 8h105.173c-3.868 11.419-5.967 23.646-5.967 36.354 0 2.851.108 5.678.316 8.477-6.998 1.028-14.09 1.549-21.169 1.549-79.651 0-144.452-64.801-144.452-144.453s64.801-144.452 144.452-144.452 144.452 64.802 144.452 144.453c0 7.079-.521 14.171-1.549 21.169zm-100.155 6.088c-4.418 0-8 3.582-8 8v44.778c-.369.674-.729 1.354-1.085 2.036h-68.413v-46.814c0-4.418-3.582-8-8-8s-8 3.582-8 8v46.814h-19.604v-63.177c0-14.037 14.787-20.784 27.192-23.973 28.126-7.233 57.189-7.227 86.388.017 10.131 2.513 27.126 8.966 27.126 23.956v21.809c-7.167 4.916-13.746 10.629-19.604 17.015v-22.462c0-4.417-3.582-7.999-8-7.999zm-42.748-61.652c-15.031 0-27.26-17.2-27.26-38.341 0-24.964 17.079-28.691 27.26-28.691s27.259 3.728 27.259 28.691c0 21.142-12.229 38.341-27.259 38.341zm232 168.821c0 53.803-43.771 97.574-97.574 97.574-53.802 0-97.573-43.771-97.573-97.574s43.771-97.573 97.573-97.573c53.803 0 97.574 43.771 97.574 97.573zm0-108.806-38.351 6.138c-2.008.322-3.76 1.389-4.977 2.91-9.275-5.064-19.333-8.866-29.938-11.187 1.14-7.763 1.718-15.63 1.718-23.481 0-88.474-71.979-160.452-160.453-160.452s-160.452 71.979-160.452 160.452 71.979 160.453 160.452 160.453c7.852 0 15.718-.578 23.481-1.718 2.322 10.605 6.124 20.663 11.188 29.939-1.521 1.216-2.588 2.968-2.91 4.977l-6.139 38.349h-51.239l-6.139-38.35c-.527-3.294-3.043-5.915-6.312-6.576-24.076-4.872-46.709-14.255-67.27-27.889-2.778-1.842-6.409-1.768-9.112.188l-31.48 22.793-36.231-36.232 22.792-31.481c1.956-2.702 2.031-6.333.188-9.113-13.628-20.546-23.012-43.179-27.889-67.269-.662-3.27-3.283-5.785-6.576-6.312l-38.351-6.139v-51.24l38.35-6.139c3.294-.527 5.915-3.043 6.576-6.312 4.873-24.077 14.256-46.709 27.889-67.269 1.844-2.779 1.769-6.411-.188-9.113l-22.792-31.479 36.231-36.232 31.48 22.792c2.701 1.956 6.334 2.03 9.113.187 20.546-13.627 43.179-23.011 67.27-27.889 3.269-.662 5.784-3.283 6.312-6.576l6.139-38.35h51.239l6.139 38.35c.527 3.293 3.043 5.914 6.312 6.576 24.085 4.877 46.718 14.261 67.27 27.889 2.778 1.842 6.409 1.769 9.112-.188l31.48-22.792 36.232 36.232-22.792 31.48c-1.956 2.702-2.031 6.333-.188 9.113 13.627 20.544 23.01 43.177 27.889 67.269.662 3.269 3.283 5.784 6.576 6.312l38.351 6.139zm-65.367 64.767-47.802 48.498-16.61-16.61c-4.445-4.445-10.355-6.894-16.642-6.894s-12.197 2.448-16.642 6.893c-4.446 4.445-6.895 10.356-6.895 16.642 0 6.287 2.448 12.197 6.894 16.642l33.318 33.318c4.589 4.588 10.615 6.882 16.642 6.881 6.027 0 12.055-2.294 16.643-6.882 16.992-16.993 51.682-52.503 64.435-65.383 4.425-4.45 6.852-10.355 6.835-16.63-.018-6.275-2.478-12.168-6.927-16.592-9.184-9.134-24.089-9.093-33.249.117zm21.983 21.837c-12.804 12.931-47.465 48.413-64.392 65.339-2.938 2.938-7.719 2.938-10.656 0l-33.317-33.318h-.001c-1.423-1.423-2.207-3.315-2.207-5.328 0-2.012.784-3.905 2.208-5.328 1.423-1.423 3.314-2.207 5.328-2.207 2.013 0 3.904.784 5.328 2.207l22.309 22.308c1.5 1.5 3.535 2.343 5.656 2.343h.029c2.132-.008 4.172-.866 5.668-2.384l53.433-54.21c2.913-2.93 7.667-2.942 10.598-.029 1.419 1.411 2.203 3.29 2.209 5.291.004 2-.769 3.884-2.193 5.316z"/></svg>