<?xml version="1.0" encoding="iso-8859-1"?>
<!-- Generator: Adobe Illustrator 19.0.0, SVG Export Plug-In . SVG Version: 6.00 Build 0)  -->
<svg version="1.1" id="Capa_1" xmlns="http://www.w3.org/2000/svg" xmlns:xlink="http://www.w3.org/1999/xlink" x="0px" y="0px"
	 viewBox="0 0 369.101 369.101" style="enable-background:new 0 0 369.101 369.101;" xml:space="preserve">
<g>
	<g>
		<g>
			<path d="M137.421,169.523c0,26.112,21.248,47.36,47.36,47.36c26.112,0,47.36-21.248,47.36-47.36s-21.248-47.36-47.36-47.36
				S137.421,143.411,137.421,169.523z M184.781,139.571c16.538,0,29.952,13.414,29.952,29.952s-13.414,29.952-29.952,29.952
				s-29.952-13.414-29.952-29.952C154.829,152.986,168.243,139.571,184.781,139.571z"/>
			<path d="M216.371,230.963l-63.437-0.205c0,0,0,0-0.051,0c-34.714,0-62.925,28.211-62.925,62.925v59.29
				c0,8.909,7.219,16.128,16.128,16.128h156.928c9.062,0,16.128-7.014,16.128-15.974v-59.29
				C279.142,259.174,250.982,230.963,216.371,230.963z M261.734,351.693h-19.302v-57.6c0-3.942-3.226-7.168-7.168-7.168
				c-3.942,0-7.168,3.226-7.168,7.168v57.6h-87.091v-57.6c0-3.942-3.226-7.168-7.168-7.168s-7.168,3.226-7.168,7.168v57.6h-19.302
				v-58.061c0-25.088,20.429-45.466,45.517-45.466l63.386,0.205c0,0,0,0,0.051,0c25.037,0,45.414,20.378,45.414,45.466V351.693z"/>
			<path d="M102.605,94.72c26.112,0,47.36-21.248,47.36-47.36S128.717,0,102.605,0s-47.36,21.248-47.36,47.36
				S76.493,94.72,102.605,94.72z M102.605,17.408c16.538,0,29.952,13.414,29.952,29.952c0,16.538-13.414,29.952-29.952,29.952
				S72.653,63.898,72.653,47.36S86.067,17.408,102.605,17.408z"/>
			<path d="M99.328,236.749c0-4.813-3.891-8.704-8.704-8.704h-31.59v-57.549c0-3.942-3.226-7.168-7.168-7.168
				s-7.168,3.226-7.168,7.168v57.6H25.395v-58.01c0-25.088,20.429-45.517,45.517-45.517H134.4c3.328,0,6.502,0.358,9.779,1.075
				c0.614,0.154,1.28,0.205,1.894,0.205c3.994,0,7.578-2.765,8.499-6.81c1.024-4.71-1.894-9.318-6.605-10.394
				c-4.506-1.024-8.96-1.485-13.568-1.485H70.912c-34.714,0-62.925,28.211-62.925,62.925v59.29c0,8.909,7.219,16.128,16.128,16.128
				h66.509C95.437,245.453,99.328,241.562,99.328,236.749z"/>
			<path d="M266.752,94.72c26.112,0,47.36-21.248,47.36-47.36S292.864,0,266.752,0s-47.36,21.248-47.36,47.36
				S240.64,94.72,266.752,94.72z M266.752,17.408c16.538,0,29.952,13.414,29.952,29.952c0,16.538-13.414,29.952-29.952,29.952
				S236.8,63.898,236.8,47.36S250.214,17.408,266.752,17.408z"/>
			<path d="M342.682,125.542c-11.878-11.878-27.699-18.432-44.442-18.432l-63.437,0.051c-4.557,0-8.96,0.461-13.414,1.485
				c-4.71,1.024-7.629,5.683-6.605,10.394c0.922,4.045,4.506,6.81,8.499,6.81c0.614,0,1.28-0.051,1.894-0.205
				c3.226-0.717,6.298-1.075,9.626-1.075l63.437-0.051c12.134,0,23.552,4.762,32.154,13.363
				c8.602,8.602,13.363,20.019,13.363,32.154v58.01h-19.302v-57.549c0-3.942-3.226-7.168-7.168-7.168
				c-3.942,0-7.168,3.226-7.168,7.168v57.6h-31.59c-4.813,0-8.704,3.891-8.704,8.704c0,4.813,3.891,8.704,8.704,8.704h66.458
				c8.909,0,16.128-7.219,16.128-16.128v-59.302v-0.038C361.114,153.242,354.56,137.472,342.682,125.542z"/>
		</g>
	</g>
</g>
</svg>
