<svg xmlns="http://www.w3.org/2000/svg" width="58" height="64" viewBox="0 0 58 64">
<g>
<path d="M 19.50 63.37 C12.81,62.33 6.19,59.90 3.67,57.57 C-1.72,52.57 1.42,47.23 11.65,44.00 C14.87,42.99 17.38,41.66 17.24,41.05 C17.10,40.44 15.43,37.59 13.53,34.72 C5.72,22.87 7.39,10.89 17.88,3.51 C21.64,0.88 23.02,0.50 29.00,0.50 C34.99,0.50 36.36,0.87 40.16,3.54 C49.21,9.89 51.81,20.66 46.68,30.50 C45.25,33.25 43.12,36.96 41.94,38.74 C40.30,41.24 40.12,42.09 41.16,42.41 C53.59,46.29 57.00,48.51 57.00,52.72 C57.00,56.03 52.63,59.73 46.60,61.55 C41.41,63.11 24.94,64.22 19.50,63.37 ZM 42.81 58.56 C49.04,56.91 53.00,54.55 53.00,52.50 C53.00,50.64 46.74,47.45 41.35,46.55 L 37.20 45.86 L 33.87 51.43 C32.03,54.49 29.84,57.00 29.00,57.00 C28.16,57.00 25.97,54.49 24.13,51.43 L 20.80 45.86 L 16.65 46.55 C11.26,47.45 5.00,50.64 5.00,52.50 C5.00,58.32 29.17,62.19 42.81,58.56 ZM 37.36 38.90 C46.32,24.54 47.38,20.49 44.01,13.52 C41.24,7.80 35.25,4.00 29.00,4.00 C22.75,4.00 16.76,7.80 13.99,13.52 C10.62,20.49 11.68,24.54 20.64,38.90 C24.79,45.56 28.56,51.00 29.00,51.00 C29.44,51.00 33.21,45.56 37.36,38.90 ZM 23.08 27.41 C17.80,22.97 19.11,15.10 25.58,12.40 C35.08,8.43 42.78,20.80 34.92,27.41 C33.19,28.87 30.60,30.00 29.00,30.00 C27.40,30.00 24.81,28.87 23.08,27.41 ZM 33.64 23.11 C35.87,18.61 31.85,13.96 27.05,15.48 C23.82,16.51 22.80,21.81 25.26,24.80 C27.00,26.91 32.28,25.85 33.64,23.11 Z" fill="inherit"/>
</g>
</svg>