<svg width="50" height="50" viewBox="0 0 50 50" fill="none" xmlns="http://www.w3.org/2000/svg">
<g clip-path="url(#clip0_405_15)">
<path d="M20 9C21.9346 9.00097 27.5264 8.99935 29.5001 9.00033C30.1706 9.00863 31.3092 8.99202 32.0001 9.00057C34.0523 9.02421 47.0001 9.00101 48.0001 9.00101C49.0001 9.00101 50.0001 10.001 50.0001 11.0003C50.0001 11.0003 49.9932 14.2627 50.0001 18.001C50.0029 18.9885 49.9971 19.9936 50.0001 21.001C50.0014 22.393 50.0084 23.109 50.0001 24.501C49.9894 26.6344 49.9873 28.8676 50.0001 31.001C49.9988 32.3526 50.004 33.6495 50.0001 35.001C49.9978 36.2346 50.0001 39.73 50.0001 41.001C50.0001 42.001 49.0001 43.0004 48.0001 43.0004C44.0001 43.001 39.6354 43.0144 35.5001 43.001C33.4498 42.9979 31.5502 42.9757 29.5001 43.001C28.2104 43.0017 26.8289 43.0004 25.5001 43.001C24.3136 43.004 22.0001 43.001 20.0001 43.001C18.5 43.001 17.0001 41.5 17.0001 40.001C17.0001 37.0003 17.0001 33.001 17.0001 33.001L13.0001 30.501L6.00008 26.001C5.5 25.5 5.49997 24.5 6.00008 24.0003L10.0001 22.501L13.0001 21.501L17.0001 20.5003V16.001V12C17 10.5 18.5 9 20 9ZM19.0001 13V16.8025V22.0003C19.0001 22.0003 10.9297 23.9866 8.00008 25.001L15.0001 29.501L19.0001 32.0003V35.001C19.0001 36.001 19.0001 37.4379 19.0001 39C19.0001 40 20 41 21 41C21 41 28.1408 41.006 30.0001 41.001C31.2795 40.9926 32.6819 41.0097 34.0001 41.001C35.925 40.9943 45.0363 41.0079 47.0001 41.001C48.0001 40.9975 48.0001 41.001 48.0001 40.001C48.0001 40.001 47.9968 35.4631 48.0001 32.501C48.0014 31.384 47.9987 30.1518 48.0001 29.001C47.9943 27.2443 48.006 27.2932 48.0001 25.501C48.0039 24.326 47.9961 23.2116 48.0001 22.001C47.9988 20.8853 48.0014 19.6505 48.0001 18.501C47.9984 16.9569 48.0001 12.501 48.0001 12.001C48.0001 11.501 47.5001 11.001 47.0001 11.0003H41.0001H37.5001H33.5001H29.5001H26.0001C26.0001 11.0003 22 11 21 11C20 11 19 12 19.0001 13Z" fill="#056251"/>
<path d="M3.00038 0.000744852C4.80926 -0.0359934 17.1546 0.038376 19 0.000895563C20.7315 -0.00490522 20.7335 0.00681353 22.5 0.000895563C23.5608 -0.00732221 26.5 0.000795963 28 0.000795963C29.5 0.000795963 31 1.5008 31 3.0008C31 4.5008 31 3.50048 31 7.50048C30.01 7.50048 30.02 7.50048 29 7.50048C29 6.00048 29 4.00048 29 3.00048C29 1.88245 27.18 2 26.5 2C25.51 3.485 24 6 24 6C23.5 6.5 23 7 22 7.00048C21.0237 7.00095 8.5 7 8 7C7.5 7 7 7 6.5 6C6.5 6 5.33365 3.00096 5 2.50048C4.66635 2 4 2 3.5 2C2.67157 2 2.00248 2.50081 2 3.5C1.99496 5.53028 2.00815 25.9697 1.99951 27.9999C1.98744 30.9115 2.00394 34.0883 1.99951 36.9999C1.99435 37.9134 2.00483 38.5587 1.99951 39.4999C1.99932 41.6725 1.99951 46 1.99951 46C1.99951 47 3 47.9798 4 47.9999C5.54204 48.0308 16.4263 47.9683 17.9995 47.9999C19.472 48.0076 19.4973 47.992 20.9995 47.9999C21.9044 48.0093 26 48 26 48C27 48 27.5 48 28 47L29 44.0008C29.99 44.0008 29.98 44.0008 31 44.0008C30 46.5 30.2071 46.5858 29.5 48C28.7929 49.4142 27.5652 49.9851 26 50.0008C24.7812 50.013 12.9023 49.9683 11.6465 49.9809C9.90341 49.9838 9.90341 49.9838 8.12506 49.9867C6.51643 49.9929 4.64113 49.9746 3 49.9809C1.4707 49.9867 0.0186157 48.5 -0.000488281 47C-0.000488281 47 0.0234375 45.7829 0.0186157 43.3383C0.0123114 42.4239 0.00600708 41.5096 -0.000488281 40.5675C0.00356019 39.5779 0.00760865 38.5883 0.0117798 37.5688C0.00986634 36.5553 0.00795289 35.5419 0.00598145 34.4977C0.00461888 32.3525 0.00832032 30.2072 0.0166626 28.0619C0.027361 24.7698 0.0167696 21.4781 0.00396729 18.186C0.00528887 16.1052 0.00785124 14.0245 0.0117798 11.9438C0.00773132 10.9542 0.00368287 9.96457 -0.000488281 8.94499C0.00581604 8.03064 0.0121204 7.11629 0.0186157 6.17424C0.0202069 5.36752 -0.00156129 3.83197 7.81119e-05 3.00081C-4.16338e-05 1.5 1.5 0.000744852 3.00038 0.000744852ZM7 1.99992C7.33 2.65992 8.16 4.32048 8.5 5.00048C12.46 5.00048 17.92 5 22 5C22 5 23.66 2.68 24 2C19.38 2 11.76 1.99992 7 1.99992Z" fill="#056251"/>
<path d="M27.5 13.9997C27.5 13.9997 33 17.9989 33 18.999C33 20.5 30 24 30 24C30.33 24.66 34.16 29.319 34.5 29.999C35.7169 29.7309 39.5 26.999 39.5 26.999C42 26.999 44 30.499 45.5 31.9999C45.5 31.9999 46.0061 33.1949 46 34C45.9939 34.8051 44 36.499 41.0001 37.9999C35.5 37.999 34.0425 38.5314 29.8126 36.3749C25.5 34 23.1103 30.2205 21.0001 25.9999C20.7155 22.229 21.5753 19.5243 23 15.9999C24.4248 12.4755 27.5 13.9997 27.5 13.9997ZM26 14.9999C24.567 17.866 22.6936 22.3121 23 25.499C25.3042 29.7661 27.8043 33.0197 32 35.499C34.9096 35.998 37.9961 36.3437 41 35.999L44 33.5C43.01 32.51 41.0201 30.0199 40.0001 28.9999C38.0201 29.6599 35 32.499 34 31.9999C33 31.5008 29.5 27.1875 28 24L31 19L26 14.9999Z" fill="#056251"/>
<path d="M6 45H15H24V46.5H6V45Z" fill="#056251"/>
</g>
<defs>
<clipPath id="clip0_405_15">
<rect width="50" height="50" fill="white"/>
</clipPath>
</defs>
</svg>
