<svg xmlns="http://www.w3.org/2000/svg" width="64" height="64" viewBox="0 0 64 64">
<g>
<path d="M 40.32 63.04 C35.70,61.94 27.25,57.34 21.50,52.79 C14.86,47.54 8.81,40.05 4.29,31.50 C1.31,25.86 0.58,23.39 0.55,18.79 C0.50,13.36 0.71,12.87 4.96,8.54 C11.14,2.24 13.68,2.37 20.65,9.35 C27.09,15.79 27.64,19.05 23.04,23.46 C20.52,25.87 20.25,26.60 21.21,28.40 C23.34,32.41 28.17,37.78 32.33,40.77 L 36.51 43.77 L 39.97 40.89 C45.15,36.56 47.63,37.06 54.28,43.78 C57.73,47.27 60.00,50.42 60.00,51.74 C60.00,54.36 54.81,60.53 50.90,62.55 C47.88,64.11 45.32,64.23 40.32,63.04 ZM 52.47 56.90 C54.41,55.19 56.00,53.04 56.00,52.11 C56.00,51.18 53.77,48.23 51.05,45.55 L 46.10 40.68 L 42.05 44.34 C39.82,46.35 37.60,48.00 37.11,48.00 C36.62,48.00 33.56,46.04 30.32,43.65 C24.24,39.18 19.05,33.39 16.92,28.72 C15.81,26.28 16.02,25.72 19.46,21.92 L 23.20 17.77 L 17.94 12.44 C12.10,6.52 11.28,6.50 6.61,12.05 C2.90,16.47 3.17,21.07 7.67,30.07 C12.76,40.24 23.88,51.38 33.88,56.34 C43.34,61.03 47.61,61.16 52.47,56.90 ZM 49.28 29.74 C48.76,29.06 47.77,27.08 47.09,25.35 C45.55,21.46 42.69,18.76 37.57,16.35 C35.41,15.33 33.46,13.94 33.24,13.25 C32.55,11.13 38.42,11.81 42.06,14.26 C46.52,17.27 52.00,24.57 52.00,27.52 C52.00,30.33 50.60,31.47 49.28,29.74 ZM 60.69 29.25 C60.46,28.84 59.69,26.70 58.99,24.50 C56.09,15.43 48.49,7.94 39.00,4.82 C36.41,3.96 34.36,2.63 34.18,1.67 C33.29,-2.92 46.87,2.71 54.08,9.92 C59.32,15.16 64.00,23.94 64.00,28.54 C64.00,30.04 61.45,30.59 60.69,29.25 Z" fill="inherit"/>
</g>
</svg>