<?xml version="1.0" encoding="UTF-8" standalone="no"?>
<!-- Created with Inkscape (http://www.inkscape.org/) -->

<svg
   version="1.1"
   id="svg4158"
   xml:space="preserve"
   width="682.66669"
   height="682.66669"
   viewBox="0 0 682.66669 682.66669"
   xmlns="http://www.w3.org/2000/svg"
   xmlns:svg="http://www.w3.org/2000/svg"><defs
     id="defs4162"><clipPath
       clipPathUnits="userSpaceOnUse"
       id="clipPath4172"><path
         d="M 0,512 H 512 V 0 H 0 Z"
         id="path4170" /></clipPath></defs><g
     id="g4164"
     transform="matrix(1.3333333,0,0,-1.3333333,0,682.66667)"><g
       id="g4166"><g
         id="g4168"
         clip-path="url(#clipPath4172)"><g
           id="g4174"
           transform="translate(434.9539,169.9964)"><path
             d="M 0,0 C -6.67,11.922 -18.222,20.882 -32.307,23.962 L -84.785,35.436 V 48.047"
             style="fill:none;stroke:#000000;stroke-width:20;stroke-linecap:round;stroke-linejoin:round;stroke-miterlimit:10;stroke-dasharray:none;stroke-opacity:1"
             id="path4176" /></g><g
           id="g4178"
           transform="translate(205.1789,124.0001)"><path
             d="M 0,0 V -74 H 236"
             style="fill:none;stroke:#000000;stroke-width:20;stroke-linecap:round;stroke-linejoin:round;stroke-miterlimit:10;stroke-dasharray:none;stroke-opacity:1"
             id="path4180" /></g><g
           id="g4182"
           transform="translate(295.8891,217.9552)"><path
             d="m 0,0 v -12.523 l -52.211,-11.453 c -6.007,-1.318 -11.553,-3.706 -16.456,-6.937"
             style="fill:none;stroke:#000000;stroke-width:20;stroke-linecap:round;stroke-linejoin:round;stroke-miterlimit:10;stroke-dasharray:none;stroke-opacity:1"
             id="path4184" /></g><g
           id="g4186"
           transform="translate(350.169,205.4322)"><path
             d="M 0,0 -27.14,-72.58 -54.28,0"
             style="fill:none;stroke:#000000;stroke-width:20;stroke-linecap:round;stroke-linejoin:round;stroke-miterlimit:10;stroke-dasharray:none;stroke-opacity:1"
             id="path4188" /></g><g
           id="g4190"
           transform="translate(323.179,365.0706)"><path
             d="m 0,0 v 0 c -31.749,0 -57.487,-25.738 -57.487,-57.487 v -13.838 h 28.108 c 18.684,0 36.409,8.272 48.409,22.593 v 0 l 38.457,-22.593 v 13.838 C 57.487,-25.738 31.749,0 0,0 Z"
             style="fill:none;stroke:#000000;stroke-width:20;stroke-linecap:round;stroke-linejoin:round;stroke-miterlimit:10;stroke-dasharray:none;stroke-opacity:1"
             id="path4192" /></g><g
           id="g4194"
           transform="translate(380.6655,305.042)"><path
             d="M 0,0 V -35.714 C 0,-67.462 -25.738,-93.2 -57.487,-93.2 v 0 0 c -31.749,0 -57.486,25.738 -57.486,57.486 V 0"
             style="fill:none;stroke:#000000;stroke-width:20;stroke-linecap:round;stroke-linejoin:round;stroke-miterlimit:10;stroke-dasharray:none;stroke-opacity:1"
             id="path4196" /></g><path
           d="M 502,10 H 10 v 40 h 492 z"
           style="fill:none;stroke:#000000;stroke-width:20;stroke-linecap:round;stroke-linejoin:round;stroke-miterlimit:10;stroke-dasharray:none;stroke-opacity:1"
           id="path4198" /><g
           id="g4200"
           transform="translate(10,419.4549)"><path
             d="m 0,0 c 0,-45.588 36.957,-82.545 82.545,-82.545 45.589,0 82.545,36.957 82.545,82.545 0,45.588 -36.956,82.545 -82.545,82.545 C 36.957,82.545 0,45.588 0,0 Z"
             style="fill:none;stroke:#000000;stroke-width:20;stroke-linecap:round;stroke-linejoin:round;stroke-miterlimit:10;stroke-dasharray:none;stroke-opacity:1"
             id="path4202" /></g><g
           id="g4204"
           transform="translate(92.6121,468)"><path
             d="M 0,0 V -48.545 L 14.949,-63.444"
             style="fill:none;stroke:#000000;stroke-width:20;stroke-linecap:round;stroke-linejoin:round;stroke-miterlimit:10;stroke-dasharray:none;stroke-opacity:1"
             id="path4206" /></g><g
           id="g4208"
           transform="translate(78,285)"><path
             d="M 0,0 H -68 V -160 H 15"
             style="fill:none;stroke:#000000;stroke-width:20;stroke-linecap:round;stroke-linejoin:round;stroke-miterlimit:10;stroke-dasharray:none;stroke-opacity:1"
             id="path4210" /></g><g
           id="g4212"
           transform="translate(141.0005,125)"><path
             d="M 0,0 H 85 V 160 H 17"
             style="fill:none;stroke:#000000;stroke-width:20;stroke-linecap:round;stroke-linejoin:round;stroke-miterlimit:10;stroke-dasharray:none;stroke-opacity:1"
             id="path4214" /></g><g
           id="g4216"
           transform="translate(138,86)"><path
             d="m 0,0 h -40 v 99 c 0,11.046 8.954,20 20,20 v 0 c 11.046,0 20,-8.954 20,-20 z"
             style="fill:none;stroke:#000000;stroke-width:20;stroke-linecap:round;stroke-linejoin:round;stroke-miterlimit:10;stroke-dasharray:none;stroke-opacity:1"
             id="path4218" /></g><g
           id="g4220"
           transform="translate(170,50)"><path
             d="m 0,0 h -104 v 15 c 0,11.598 9.402,21 21,21 h 62 C -9.402,36 0,26.598 0,15 Z"
             style="fill:none;stroke:#000000;stroke-width:20;stroke-linecap:round;stroke-linejoin:round;stroke-miterlimit:10;stroke-dasharray:none;stroke-opacity:1"
             id="path4222" /></g><path
           d="M 374,90 H 502 V 50 H 374 Z"
           style="fill:none;stroke:#000000;stroke-width:20;stroke-linecap:round;stroke-linejoin:round;stroke-miterlimit:10;stroke-dasharray:none;stroke-opacity:1"
           id="path4224" /><path
           d="M 374,130 H 502 V 90 H 374 Z"
           style="fill:none;stroke:#000000;stroke-width:20;stroke-linecap:round;stroke-linejoin:round;stroke-miterlimit:10;stroke-dasharray:none;stroke-opacity:1"
           id="path4226" /><path
           d="M 374,170 H 502 V 130 H 374 Z"
           style="fill:none;stroke:#000000;stroke-width:20;stroke-linecap:round;stroke-linejoin:round;stroke-miterlimit:10;stroke-dasharray:none;stroke-opacity:1"
           id="path4228" /><g
           id="g4230"
           transform="translate(118,285)"><path
             d="M 0,0 V 0"
             style="fill:none;stroke:#000000;stroke-width:20;stroke-linecap:round;stroke-linejoin:round;stroke-miterlimit:10;stroke-dasharray:none;stroke-opacity:1"
             id="path4232" /></g></g></g></g></svg>
