<svg width="300" height="191" viewBox="0 0 300 191" fill="none" xmlns="http://www.w3.org/2000/svg">
<g clip-path="url(#clip0_17049_106946)">
<path d="M120.79 26.6766C118.277 24.1793 115.765 21.6821 113.267 19.1693C112.709 18.6108 111.84 19.4795 112.399 20.0379C114.912 22.5352 117.424 25.0325 119.922 27.5453C120.48 28.1037 121.349 27.235 120.79 26.6766Z" fill="#0F0F0F"/>
<path d="M170.767 12.9031C169.293 14.6094 167.819 16.3001 166.346 18.0063C165.818 18.6112 166.718 19.4799 167.23 18.8749C168.704 17.1687 170.177 15.478 171.651 13.7718C172.178 13.1823 171.278 12.2982 170.767 12.9031Z" fill="#0F0F0F"/>
<path d="M184.17 22.0079C180.509 23.6676 176.864 25.3428 173.203 27.0025C172.474 27.3438 173.11 28.3985 173.839 28.0728C177.5 26.4131 181.145 24.7379 184.806 23.0782C185.55 22.737 184.914 21.6822 184.17 22.0079Z" fill="#0F0F0F"/>
<path d="M175.575 116.068C165.26 117.51 166.082 132.913 177.483 132.835C190.419 132.742 188.325 114.268 175.575 116.068Z" fill="url(#paint0_linear_17049_106946)"/>
<path d="M114.539 125.266L116.354 130.679L121.55 126.538L114.539 125.266Z" fill="#0F0F0F"/>
<path d="M32.8887 67.5176L38.24 80.8416L46.9728 69.9218L32.8887 67.5176Z" fill="#0F0F0F"/>
<path d="M247.593 40.5596L235.572 55.6829L250.447 68.976L265.183 55.6829L247.593 40.5596Z" fill="url(#paint1_linear_17049_106946)"/>
<path d="M48.6167 46.2366C48.2755 48.6253 47.9342 50.9985 47.593 53.3872C47.4844 54.1628 48.6633 54.504 48.7874 53.713C49.1286 51.3242 49.4698 48.951 49.8111 46.5623C49.9197 45.7868 48.7253 45.4455 48.6167 46.2366Z" fill="#0F0F0F"/>
<path d="M243.266 33.8432C243.142 33.0676 241.947 33.3933 242.072 34.1689C242.242 35.1926 242.413 36.2164 242.583 37.2401C242.707 38.0157 243.902 37.6899 243.778 36.9144C243.607 35.8906 243.437 34.8669 243.266 33.8432Z" fill="#0F0F0F"/>
<path d="M268.736 64.0433C266.859 64.2139 264.982 64.3845 263.121 64.5552C262.33 64.6327 262.33 65.8581 263.121 65.7805C264.997 65.6099 266.874 65.4393 268.736 65.2687C269.511 65.2066 269.527 63.9812 268.736 64.0433Z" fill="#0F0F0F"/>
<path d="M40.4271 56.9394C39.4034 56.2569 38.3796 55.5744 37.3559 54.9075C36.6889 54.4731 36.0685 55.5279 36.7354 55.9777C37.7592 56.6602 38.7829 57.3427 39.8066 58.0097C40.4736 58.444 41.0941 57.3737 40.4271 56.9394Z" fill="#0F0F0F"/>
<path d="M102.068 29.2829C85.0058 33.9052 69.4171 42.762 56.698 55.0469C56.1241 55.6053 56.9927 56.4739 57.5666 55.9155C70.1461 43.7858 85.5332 35.053 102.394 30.4772C103.154 30.2601 102.828 29.0812 102.068 29.2829Z" fill="#0F0F0F"/>
<path d="M224.266 34.9598C217.689 29.3913 210.057 25.498 201.666 23.4815C200.89 23.2954 200.565 24.4898 201.34 24.6759C209.515 26.6458 216.975 30.3995 223.382 35.8284C223.986 36.3403 224.871 35.4717 224.266 34.9598Z" fill="#0F0F0F"/>
<path d="M198.487 187.947C198.162 187.947 197.882 187.683 197.867 187.342L195.618 108.452C195.602 108.111 195.881 107.832 196.223 107.816C196.548 107.816 196.843 108.08 196.859 108.421L199.108 187.311C199.123 187.652 198.844 187.931 198.503 187.947C198.487 187.947 198.487 187.947 198.487 187.947Z" fill="#0F0F0F"/>
<path d="M99.1849 190.909C98.8437 190.909 98.5645 190.63 98.5645 190.289V178.392C98.5645 178.051 98.8437 177.771 99.1849 177.771C99.5261 177.771 99.8053 178.051 99.8053 178.392V190.289C99.8053 190.646 99.5261 190.909 99.1849 190.909Z" fill="#0F0F0F"/>
<path d="M136.815 145.137C136.8 145.137 136.784 145.137 136.769 145.137L119.257 143.679C119.086 143.663 118.931 143.585 118.838 143.461C118.729 143.337 118.683 143.167 118.698 142.996L119.8 133.022C119.831 132.712 120.094 132.479 120.404 132.479H136.815C137.156 132.479 137.436 132.759 137.436 133.1V144.532C137.436 144.702 137.358 144.873 137.234 144.981C137.11 145.075 136.955 145.137 136.815 145.137ZM119.97 142.5L136.195 143.849V133.705H120.947L119.97 142.5Z" fill="#0F0F0F"/>
<path d="M180.913 128.585C174.724 128.585 171.576 124.196 171.281 120.101C170.986 116.084 173.282 111.399 179.005 110.593C183.007 110.019 186.497 111.384 188.576 114.3C190.592 117.123 190.918 121.001 189.398 123.979C187.893 126.926 184.9 128.57 180.991 128.601C180.975 128.585 180.944 128.585 180.913 128.585ZM179.176 111.818C174.228 112.516 172.258 116.549 172.506 120.023C172.77 123.684 175.484 127.36 180.913 127.36C180.944 127.36 180.975 127.36 181.006 127.36C184.434 127.329 187.04 125.933 188.328 123.42C189.646 120.861 189.351 117.48 187.599 115.029C186.528 113.524 184.015 111.135 179.176 111.818Z" fill="#0F0F0F"/>
<path d="M96.6095 126.911C96.1752 123.809 94.7327 119.388 96.4854 115.913C98.9827 110.981 103.233 105.537 104.83 107.429C107.452 110.516 114.68 155.42 113.346 168.155C112.012 180.89 99.6497 187.342 99.6497 187.342L99.1999 178.408C99.1999 178.408 105.203 172.793 105.528 161.857C105.854 150.922 99.1379 120.148 99.1379 120.148L96.6095 126.911Z" fill="url(#paint2_linear_17049_106946)"/>
<path d="M203.249 167.178C202.333 171.552 200.395 175.119 198.192 177.958C198.114 176.732 198.037 175.492 197.959 174.266C197.541 167.922 195.664 111.074 196.439 109.181C195.276 103.241 199.262 110.236 201.279 114.75C202.985 118.566 205.032 123.529 204.738 128.415C205.063 143.477 204.738 160.073 203.249 167.178Z" fill="url(#paint3_linear_17049_106946)"/>
<path d="M88.4972 147.804C88.1559 147.804 87.8767 147.525 87.8767 147.183L87.8457 100.293C87.8457 96.7413 90.6222 93.8872 94.1587 93.7941C109.344 93.4064 109.406 93.4839 109.67 93.8097C109.794 93.9648 109.84 94.1664 109.794 94.3525C109.716 94.6783 109.375 94.8954 109.049 94.8024C109.034 94.8024 109.018 94.7869 109.003 94.7869C108.584 94.7558 106.226 94.7093 94.1898 95.035C91.3202 95.1126 89.0711 97.4238 89.0711 100.293L89.1021 147.183C89.1176 147.525 88.8384 147.804 88.4972 147.804Z" fill="#0F0F0F"/>
<path d="M200.55 122.04C200.209 122.04 199.93 121.761 199.93 121.42V99.1456C199.93 96.2451 197.572 93.8874 194.671 93.8874C194.33 93.8874 194.051 93.6082 194.051 93.2669C194.051 92.9257 194.33 92.6465 194.671 92.6465C198.254 92.6465 201.155 95.5626 201.155 99.1301V121.404C201.155 121.761 200.891 122.04 200.55 122.04Z" fill="#0F0F0F"/>
<path d="M91.1966 190.909C90.8554 190.909 90.5762 190.63 90.5762 190.289V185.434C90.5762 185.093 90.8554 184.813 91.1966 184.813C91.5379 184.813 91.8171 185.093 91.8171 185.434V190.289C91.8171 190.646 91.5379 190.909 91.1966 190.909Z" fill="#0F0F0F"/>
<path d="M184.961 93.2823C184.371 83.9601 176.957 85.1234 176.957 85.1234C174.894 79.5549 169.558 78.8569 169.558 78.8569C169.109 72.0475 165.712 65.0055 150.945 65.7655C136.178 66.5256 129.772 72.8386 130.284 82.6882C124.126 82.7657 121.924 86.4884 121.955 88.9392C120.76 86.2092 120.435 82.9519 120.404 79.1982C120.217 62.5547 128.252 57.0948 158.763 56.8001C184.201 56.5519 186.698 62.0118 187.427 74.5138C187.908 83.0759 187.97 89.2028 184.961 93.2823Z" fill="url(#paint4_linear_17049_106946)"/>
<path d="M160.204 100.464C125.599 100.464 119.937 94.1977 119.782 79.2139C119.705 72.0168 121.147 67.2859 124.482 63.8889C129.663 58.5996 139.59 56.366 158.746 56.1954C184.278 55.9627 187.271 61.5778 188.031 74.483C188.559 83.6346 188.621 90.444 184.588 94.7251C180.788 98.7425 173.497 100.464 160.204 100.464ZM158.762 57.4208C139.962 57.5914 130.299 59.7164 125.366 64.742C122.28 67.8908 120.93 72.3425 121.008 79.1984C121.163 92.8172 125.072 99.2233 160.204 99.2233C173.125 99.2233 180.152 97.6257 183.688 93.872C187.395 89.9476 187.318 83.3864 186.806 74.5451C186.139 63.1289 184.572 57.1881 158.762 57.4208Z" fill="#0F0F0F"/>
<path d="M136.798 90.9865C136.721 90.9865 136.628 90.971 136.55 90.94C136.24 90.8004 136.1 90.4436 136.24 90.1334C138.427 85.1233 143.902 72.823 143.902 72.823C144.042 72.5127 144.399 72.3732 144.693 72.4972C144.864 72.5593 161.507 79.3221 169.449 78.0968C169.79 78.0502 170.101 78.2829 170.147 78.6086C170.194 78.9499 169.976 79.2601 169.635 79.3066C162.112 80.47 147.827 75.0566 144.786 73.8622C143.701 76.2975 139.28 86.2401 137.357 90.6298C137.263 90.8469 137.046 90.9865 136.798 90.9865Z" fill="#0F0F0F"/>
<path d="M129.756 95.7791C129.462 95.7791 129.198 95.5619 129.152 95.2672C128.95 93.9798 129.245 92.8164 130.005 91.9013C131.215 90.4743 133.51 89.7607 136.799 89.7607C137.14 89.7607 137.419 90.0399 137.419 90.3812C137.419 90.7224 137.14 91.0016 136.799 91.0016C133.913 91.0016 131.897 91.5911 130.935 92.7079C130.392 93.3438 130.206 94.1349 130.361 95.0811C130.408 95.4223 130.191 95.7325 129.85 95.7946C129.819 95.7791 129.787 95.7791 129.756 95.7791Z" fill="#0F0F0F"/>
<path d="M156.281 97.6411C155.94 97.6411 155.661 97.3618 155.661 97.0206C155.661 96.6794 155.94 96.4002 156.281 96.4002C157.429 96.4002 158.375 96.0899 158.825 95.5781C159.073 95.2834 159.151 94.9266 159.089 94.4923C158.918 93.5151 156.762 92.9722 155.738 92.8636C155.428 92.8326 155.195 92.5689 155.195 92.2587V86.6126C155.195 86.2714 155.475 85.9922 155.816 85.9922C156.157 85.9922 156.436 86.2714 156.436 86.6126V91.7158C157.584 91.9174 160.035 92.5534 160.314 94.2906C160.454 95.0817 160.267 95.8107 159.787 96.3691C159.073 97.1912 157.832 97.6411 156.281 97.6411Z" fill="#0F0F0F"/>
<path d="M147.657 83.4944C146.649 83.6029 145.672 83.7736 144.695 84.0683C143.935 84.3009 144.447 85.4177 145.207 85.1851C146.06 84.9214 146.959 84.7973 147.859 84.7042C148.65 84.6112 148.449 83.4013 147.657 83.4944Z" fill="#0F0F0F"/>
<path d="M165.464 83.9603C164.828 83.5415 164.13 83.2468 163.525 82.7815C162.904 82.3006 162.036 83.1847 162.671 83.6656C163.354 84.193 164.145 84.5497 164.859 85.0306C165.526 85.4649 166.115 84.3791 165.464 83.9603Z" fill="#0F0F0F"/>
<path d="M170.396 99.6887C170.054 99.6887 169.775 99.4095 169.775 99.0838C169.729 93.2826 169.574 88.35 168.938 78.9038C168.333 69.8918 162.454 65.7968 150.976 66.3863C143.034 66.7896 137.357 68.8215 134.1 72.4356C131.757 75.0415 130.672 78.4694 130.889 82.6575C130.904 82.9987 130.641 83.2934 130.299 83.3089C129.927 83.3089 129.663 83.0607 129.648 82.7195C129.415 78.2058 130.594 74.4676 133.169 71.6135C136.659 67.7512 142.615 65.5797 150.898 65.1609C163.028 64.5404 169.512 69.1317 170.147 78.8262C170.783 88.2725 170.939 93.4067 170.985 99.0838C171.016 99.4095 170.752 99.6887 170.396 99.6887Z" fill="#0F0F0F"/>
<path d="M101.139 116.099C101.046 116.099 100.953 116.084 100.875 116.037C100.565 115.897 100.441 115.525 100.58 115.215L100.968 114.408C103.341 109.507 110.554 94.6161 110.104 80.9353C109.67 68.03 109.794 59.1577 115.021 53.6667C120.636 47.7725 131.587 45.6475 158.437 45.2287C180.757 44.8099 193.446 46.392 194.966 83.9445C195.059 86.3487 195.136 88.5823 195.198 90.6608C195.447 98.618 195.617 104.373 197.029 108.995C197.122 109.321 196.951 109.662 196.625 109.771C196.3 109.864 195.958 109.693 195.85 109.367C194.392 104.59 194.221 98.7731 193.973 90.7073C193.911 88.6288 193.833 86.3952 193.74 83.991C192.189 45.8026 178.772 46.0663 158.468 46.454C132.006 46.8573 121.272 48.8893 115.921 54.5043C111.019 59.6385 110.926 68.2937 111.345 80.8888C111.81 94.8643 104.489 109.972 102.085 114.936L101.697 115.742C101.589 115.975 101.371 116.099 101.139 116.099Z" fill="#0F0F0F"/>
<path d="M121.955 88.9543L121.334 88.9388C121.319 87.4497 121.97 85.8986 123.165 84.6733C124.297 83.5099 126.453 82.1139 130.284 82.0674C130.594 82.0674 130.905 82.3311 130.905 82.6723C130.905 83.0136 130.641 83.2928 130.3 83.2928C126.887 83.3393 125.026 84.5337 124.049 85.5264C123.103 86.4881 122.56 87.76 122.575 88.9233L121.955 88.9543Z" fill="#0F0F0F"/>
<path d="M184.387 94.2284C184.387 94.2749 184.387 94.3059 184.402 94.3525C184.775 93.9957 185.178 93.6545 185.597 93.3442C185.597 93.3132 185.597 93.2822 185.597 93.2512C185.395 89.9628 184.34 87.5431 182.479 86.054C180.571 84.5184 178.369 84.4253 177.391 84.4719C175.111 79.0275 169.884 78.2674 169.667 78.2364C169.326 78.1899 169.015 78.4225 168.969 78.7638C168.922 79.105 169.155 79.4152 169.496 79.4618C169.698 79.4928 174.491 80.2063 176.414 85.3405C176.523 85.6197 176.786 85.7748 177.081 85.7283C177.112 85.7283 179.671 85.356 181.719 87.0157C183.286 88.2876 184.185 90.3971 184.371 93.3287C184.371 93.6234 184.387 93.9181 184.387 94.2284Z" fill="#0F0F0F"/>
<path d="M146.556 95.9039C145.703 95.9039 144.819 95.7023 144.012 95.299C141.872 94.2287 140.631 92.0571 140.631 89.3272C140.631 88.9859 140.91 88.7067 141.251 88.7067C141.593 88.7067 141.872 88.9859 141.872 89.3272C141.887 91.5763 142.864 93.3446 144.571 94.1977C146.029 94.9267 147.735 94.8026 148.929 93.9185C150.294 92.8947 150.806 91.0334 150.387 88.6757C150.325 88.3345 150.558 88.0242 150.884 87.9622C151.225 87.9001 151.535 88.1328 151.597 88.4586C152.28 92.2898 150.682 94.1356 149.658 94.8957C148.774 95.5627 147.673 95.9039 146.556 95.9039Z" fill="#0F0F0F"/>
<path d="M164.021 95.2056C163.261 95.2056 162.501 95.035 161.803 94.6628C159.802 93.6545 158.67 91.4209 158.67 88.5669C158.67 88.2256 158.949 87.9464 159.29 87.9464C159.632 87.9464 159.911 88.2256 159.911 88.5669C159.911 90.9401 160.81 92.7704 162.377 93.5615C163.602 94.1819 165.045 94.0733 166.146 93.2823C167.496 92.3051 168.07 90.4592 167.713 88.2256C167.666 87.8844 167.884 87.5742 168.225 87.5121C168.566 87.4656 168.876 87.6827 168.938 88.024C169.373 90.7229 168.628 93.0031 166.875 94.275C166.007 94.8954 165.029 95.2056 164.021 95.2056Z" fill="#0F0F0F"/>
<path d="M151.132 91.6066C150.915 91.6066 150.698 91.4981 150.589 91.2809C150.419 90.9862 150.543 90.6139 150.837 90.4433C151.023 90.3347 155.491 87.946 159.539 89.8694C159.849 90.009 159.973 90.3813 159.834 90.6915C159.694 91.0017 159.322 91.1258 159.012 90.9862C155.522 89.3265 151.473 91.4981 151.427 91.5291C151.334 91.5756 151.225 91.6066 151.132 91.6066Z" fill="#0F0F0F"/>
<path d="M161.57 88.7993L161.446 90.0247C161.275 91.6068 163.726 91.855 163.897 90.2884L164.021 89.063C164.176 87.4808 161.725 87.2172 161.57 88.7993Z" fill="#0F0F0F"/>
<path d="M144.959 89.187L144.835 90.4124C144.664 91.9945 147.115 92.2427 147.285 90.6761L147.41 89.4507C147.58 87.8685 145.129 87.6048 144.959 89.187Z" fill="#0F0F0F"/>
<path d="M78.8504 154.349C78.0128 154.349 77.1286 154.256 76.1824 154.039C70.1951 152.721 68.1787 142.638 65.8365 130.974C65.185 127.701 64.5026 124.32 63.7115 121.031C63.5719 120.488 63.4478 119.977 63.3237 119.434C61.8812 113.477 60.4541 107.831 58.6238 104.326C53.5052 94.4452 44.4311 87.9305 41.0032 87.217C40.4913 87.1084 40.2586 87.1705 40.2121 87.2015C40.1346 87.3876 39.8709 88.5199 43.3454 92.0875C44.9275 93.7007 45.2998 96.0894 44.3226 98.1679C43.547 99.8276 43.2523 101.348 43.4539 102.713C43.5005 103.054 43.2678 103.364 42.9421 103.411C42.6008 103.457 42.2906 103.224 42.2441 102.899C42.0114 101.286 42.3371 99.5173 43.2213 97.6405C43.9813 96.0273 43.6866 94.1815 42.4767 92.9406C39.6227 90.009 38.5214 87.9615 39.1108 86.6741C39.2349 86.4104 39.5762 85.9451 40.4448 85.9141C40.4603 85.9141 40.4913 85.9141 40.5068 85.9141C44.0434 85.9141 54.2497 93.1888 59.7251 103.752C61.6175 107.381 63.0755 113.105 64.5336 119.139C64.6577 119.666 64.7818 120.194 64.9214 120.721C65.7124 124.04 66.3949 127.437 67.0619 130.726C69.2179 141.506 71.2499 151.681 76.4616 152.829C86.3422 155.016 90.22 143.693 94.6872 130.602C96.4555 125.452 98.2703 120.116 100.597 115.199C100.737 114.889 101.109 114.765 101.419 114.904C101.729 115.044 101.853 115.416 101.714 115.726C99.4181 120.566 97.6033 125.871 95.8661 130.989C91.7556 142.98 87.8778 154.349 78.8504 154.349Z" fill="#0F0F0F"/>
<path d="M34.4735 101.425C34.396 101.425 34.3184 101.41 34.2409 101.379C30.7819 99.9206 21.227 96.5857 18.5281 98.5711C18.0162 98.9589 17.799 99.5483 17.8766 100.386C17.9076 100.727 17.6594 101.022 17.3182 101.053C16.977 101.084 16.6822 100.836 16.6512 100.495C16.4961 98.8969 17.1786 98.0127 17.799 97.5784C20.1878 95.8257 25.8648 97.1596 30.0218 98.5091C28.6879 97.9041 27.2764 97.4078 26.0044 96.958C23.3675 96.0428 21.4442 95.3758 21.0409 94.1349C20.9323 93.8092 20.8858 93.2818 21.3201 92.6459C23.8639 88.9077 38.8477 94.6468 43.3769 96.5081C43.6871 96.6322 43.8422 96.989 43.7182 97.3147C43.5941 97.6249 43.2218 97.7801 42.9116 97.656C32.0848 93.2353 23.6157 91.467 22.3438 93.3594C22.1732 93.6076 22.2042 93.7161 22.2197 93.7627C22.4369 94.4141 24.5464 95.1587 26.4077 95.8101C29.3083 96.8184 32.9379 98.0903 34.9544 100.417C35.1405 100.634 35.156 100.944 34.9854 101.177C34.8613 101.332 34.6752 101.425 34.4735 101.425Z" fill="#0F0F0F"/>
<path d="M31.4945 103.349C30.5328 103.101 29.3695 102.728 28.1286 102.356C23.3357 100.867 17.9068 99.1764 16.185 101.162C15.4095 102.046 15.487 103.426 16.4177 105.381C16.4177 105.396 16.4332 105.396 16.4332 105.412C16.79 105.396 17.1467 105.412 17.488 105.443C17.5966 105.272 17.6121 105.04 17.519 104.854C16.8365 103.442 16.6969 102.434 17.1002 101.968C18.2946 100.588 23.9716 102.372 27.7408 103.535C28.9972 103.923 30.1761 104.295 31.1688 104.559C31.4945 104.636 31.8358 104.45 31.9133 104.124C32.0219 103.768 31.8358 103.426 31.4945 103.349Z" fill="#0F0F0F"/>
<path d="M74.91 190.909C72.8005 190.909 70.5824 190.691 68.2402 190.226C45.0976 185.588 40.9561 153.48 38.9707 138.062C38.7846 136.604 38.6139 135.317 38.4588 134.246C38.1641 132.292 37.8229 130.431 37.4661 128.74C37.3886 128.306 37.2955 127.887 37.1869 127.468C35.5117 120.085 33.3246 115.168 31.1686 113.942C28.7178 112.546 25.6311 111.74 22.9012 111.026C19.0854 110.033 16.0763 109.242 15.4558 107.179C15.2697 106.559 15.0835 105.659 15.673 105.023C16.7898 103.829 19.6903 104.418 28.7333 106.45C29.0591 106.528 29.2762 106.854 29.1987 107.179C29.1211 107.505 28.7954 107.722 28.4697 107.645C22.2032 106.233 17.2706 105.116 16.5881 105.845C16.4795 105.97 16.4951 106.311 16.6502 106.807C17.069 108.203 20.0626 108.994 23.2269 109.816C26.0189 110.545 29.1987 111.367 31.789 112.857C35.155 114.764 37.3731 122.644 38.3968 127.158C38.5054 127.577 38.6139 128.042 38.6915 128.492C39.0638 130.198 39.405 132.075 39.6997 134.06C39.8548 135.146 40.0255 136.433 40.2116 137.907C42.166 153.046 46.2299 184.565 68.5039 189.032C92.7168 193.902 104.18 170.093 104.288 169.844C104.428 169.534 104.8 169.41 105.11 169.55C105.42 169.689 105.545 170.062 105.405 170.372C105.281 170.589 95.4933 190.909 74.91 190.909Z" fill="#0F0F0F"/>
<path d="M37.7754 127.282C37.8995 127.716 37.977 128.151 38.0701 128.585C42.9716 129.485 48.0593 129.345 52.9453 128.058C57.3194 126.894 61.8021 124.475 64.346 120.876C64.2064 120.333 64.0823 119.806 63.9582 119.278C61.3213 123.994 55.0393 126.6 49.719 127.499C45.7171 128.182 41.6842 128.089 37.7754 127.282Z" fill="#0F0F0F"/>
<path d="M83.7369 189.575C83.4732 189.575 83.225 189.404 83.1474 189.141C81.9686 185.294 77.9047 181.416 72.5688 179.058C65.8525 176.08 58.3916 176.049 52.1251 178.965C51.8149 179.105 51.4582 178.981 51.3031 178.671C51.1635 178.36 51.2875 178.004 51.5978 177.849C58.19 174.777 66.0076 174.793 73.0652 177.926C78.7267 180.439 83.0389 184.596 84.3263 188.784C84.4193 189.11 84.2487 189.451 83.923 189.559C83.8609 189.559 83.7989 189.575 83.7369 189.575Z" fill="#0F0F0F"/>
<path d="M218.047 146.579C208.709 146.579 204.087 132.277 200.628 121.59L200.395 120.877C198.705 115.603 197.246 111.043 195.695 109.011C195.494 108.747 195.54 108.359 195.804 108.142C196.068 107.941 196.455 107.987 196.673 108.251C198.348 110.453 199.852 115.091 201.574 120.474L201.807 121.187C206.336 135.209 211.175 147.587 220.513 144.966C230.502 142.158 232.845 125.251 234.923 110.329L234.97 109.972C235.063 109.414 235.125 108.887 235.202 108.344C236.055 102.186 236.955 96.3537 238.475 92.5534C242.911 81.4475 252.451 73.18 255.925 72.9163C256.809 72.8543 257.166 73.2731 257.321 73.5368C258.05 74.7622 257.135 76.9337 254.529 80.16C253.474 81.463 253.366 83.3088 254.25 84.7668C255.351 86.5817 255.863 88.3344 255.77 89.9786C255.754 90.3198 255.46 90.5835 255.119 90.568C254.777 90.5525 254.514 90.2578 254.529 89.9165C254.591 88.5205 254.141 87.0005 253.18 85.4028C252.032 83.5105 252.187 81.0907 253.552 79.3845C256.716 75.4447 256.344 74.3279 256.235 74.1572C256.204 74.1417 255.972 74.0952 255.46 74.2503C252.109 75.3051 243.718 82.6728 239.592 93.0033C238.118 96.6794 237.234 102.434 236.381 108.499C236.304 109.042 236.226 109.569 236.148 110.128L236.102 110.469C233.977 125.763 231.573 143.104 220.808 146.113C219.862 146.455 218.931 146.579 218.047 146.579Z" fill="#0F0F0F"/>
<path d="M263.324 87.8226C263.154 87.8226 262.983 87.745 262.859 87.6209C262.673 87.4038 262.657 87.0936 262.812 86.8609C264.596 84.3481 268.071 82.7349 270.863 81.4475C272.662 80.6254 274.694 79.6792 274.834 79.0123C274.849 78.9657 274.865 78.8571 274.678 78.6245C273.22 76.8717 264.968 79.4621 254.623 84.9065C254.328 85.0616 253.956 84.953 253.785 84.6428C253.63 84.3481 253.738 83.9758 254.049 83.8052C258.376 81.5251 272.724 74.3434 275.625 77.8179C276.105 78.3918 276.121 78.9192 276.043 79.2604C275.764 80.5168 273.918 81.3699 271.39 82.5488C270.165 83.1227 268.8 83.7431 267.528 84.4877C271.53 82.7349 277.067 80.8426 279.611 82.3627C280.262 82.7504 281.038 83.5415 281.038 85.1547C281.038 85.4959 280.759 85.7751 280.418 85.7751C280.076 85.7751 279.797 85.4959 279.797 85.1547C279.797 84.3171 279.533 83.7432 278.975 83.4174C276.105 81.7112 266.907 85.9612 263.619 87.745C263.526 87.8071 263.433 87.8226 263.324 87.8226Z" fill="#0F0F0F"/>
<path d="M266.751 90.6296C266.503 90.6296 266.27 90.4745 266.177 90.2264C266.053 89.9006 266.224 89.5594 266.55 89.4353C267.48 89.094 268.613 88.6132 269.807 88.1168C274.429 86.1624 279.672 83.9443 281.58 85.7591C282.433 86.5657 282.495 87.9462 281.751 89.9782C281.626 90.3039 281.285 90.459 280.959 90.3504C280.634 90.2419 280.479 89.8851 280.587 89.5594C281.13 88.0858 281.177 87.0776 280.727 86.6433C279.408 85.3869 273.917 87.7135 270.288 89.2492C269.078 89.761 267.93 90.2419 266.984 90.5986C266.891 90.6141 266.813 90.6296 266.751 90.6296Z" fill="#0F0F0F"/>
<path d="M224.019 182.27C206.6 182.27 198.069 170.187 197.976 170.047C197.789 169.768 197.851 169.38 198.131 169.194C198.41 169.008 198.798 169.07 198.984 169.349C199.092 169.504 209.857 184.69 231.991 180.207C255.15 175.523 258.981 141.894 261.028 123.824C261.152 122.738 261.261 121.714 261.385 120.737C261.494 119.776 261.556 118.814 261.618 117.852C261.68 116.921 261.742 116.006 261.835 115.107C261.866 114.672 261.928 114.207 262.006 113.742C262.579 109.166 264.022 101.116 267.186 98.882C269.621 97.1603 272.693 96.028 275.407 95.0198C278.478 93.8874 281.379 92.8172 281.658 91.3902C281.751 90.8783 281.751 90.537 281.627 90.4285C280.883 89.7615 276.074 91.3591 269.978 93.3756C269.653 93.4842 269.311 93.3135 269.203 92.9878C269.094 92.6621 269.265 92.3208 269.59 92.2122C278.385 89.3117 281.224 88.4275 282.449 89.5133C283.101 90.0872 283.008 91.0024 282.884 91.6383C282.48 93.7479 279.549 94.8336 275.841 96.1831C273.205 97.1603 270.211 98.2616 267.9 99.8903C265.868 101.317 264.162 106.436 263.231 113.912C263.153 114.362 263.107 114.796 263.076 115.215C262.967 116.115 262.921 116.999 262.859 117.914C262.797 118.891 262.735 119.869 262.61 120.861C262.502 121.839 262.378 122.862 262.254 123.933C260.16 142.313 256.266 176.515 232.24 181.37C229.308 182.022 226.578 182.27 224.019 182.27Z" fill="#0F0F0F"/>
<path d="M262.626 113.881C262.548 114.331 262.502 114.765 262.471 115.215C257.678 116.596 252.606 116.952 247.626 116.146C243.159 115.417 238.475 113.447 235.59 110.112C235.683 109.554 235.745 109.026 235.823 108.483C238.909 112.92 245.408 114.905 250.791 115.277C254.808 115.541 258.81 115.045 262.626 113.881Z" fill="#0F0F0F"/>
<path d="M216.915 181.696C216.837 181.696 216.775 181.681 216.698 181.665C216.372 181.541 216.217 181.2 216.325 180.874C221.134 167.752 240.445 162.54 250.621 165.565C250.946 165.658 251.132 165.999 251.039 166.325C250.946 166.65 250.605 166.836 250.279 166.743C240.538 163.858 222.065 168.806 217.489 181.308C217.396 181.541 217.163 181.696 216.915 181.696Z" fill="#0F0F0F"/>
<path d="M156.545 3.73621C153.722 0.990741 147.595 -1.66167 134.426 1.30096C134.224 1.3475 134.054 1.4871 133.992 1.68874C133.914 1.89039 133.945 2.10754 134.069 2.26265L136.706 5.87675C136.861 6.0939 137.125 6.18697 137.373 6.10942C142.972 4.43421 147.75 4.63586 150.837 6.66782C152.729 7.90871 153.877 9.83209 154.156 12.2363C154.869 18.3167 143.298 19.9609 143.19 19.9764C142.879 20.0229 142.647 20.3021 142.662 20.6123L143.174 30.9117C143.19 31.2375 143.469 31.5012 143.795 31.5012H146.044C146.214 31.5012 146.369 31.4391 146.493 31.315C146.602 31.1909 146.68 31.0358 146.664 30.8652L146.431 23.4974C148.758 22.9855 157.91 20.5813 159.275 13.6013C160.019 9.69249 159.058 6.18697 156.545 3.73621Z" fill="#0F0F0F"/>
<path d="M146.478 33.6572H143.391C143.097 33.6572 142.849 33.8589 142.787 34.1381L141.918 38.0159C141.887 38.1865 141.918 38.3571 142.011 38.4967C142.104 38.6363 142.259 38.7294 142.43 38.7604L146.37 39.3653C146.401 39.3653 146.432 39.3653 146.463 39.3653C146.602 39.3653 146.757 39.3188 146.866 39.2102C147.006 39.0861 147.083 38.9155 147.083 38.7449V34.2622C147.099 33.9364 146.819 33.6572 146.478 33.6572Z" fill="#0F0F0F"/>
</g>
<defs>
<linearGradient id="paint0_linear_17049_106946" x1="166.656" y1="124.39" x2="186.22" y2="124.39" gradientUnits="userSpaceOnUse">
<stop stop-color="#00B997"/>
<stop offset="1" stop-color="#FFB966"/>
</linearGradient>
<linearGradient id="paint1_linear_17049_106946" x1="232.759" y1="54.7678" x2="265.183" y2="54.7678" gradientUnits="userSpaceOnUse">
<stop stop-color="#00B997"/>
<stop offset="1" stop-color="#FFB966"/>
</linearGradient>
<linearGradient id="paint2_linear_17049_106946" x1="93.941" y1="147.193" x2="113.509" y2="147.193" gradientUnits="userSpaceOnUse">
<stop stop-color="#00B997"/>
<stop offset="1" stop-color="#FFB966"/>
</linearGradient>
<linearGradient id="paint3_linear_17049_106946" x1="195.411" y1="142.426" x2="204.853" y2="142.426" gradientUnits="userSpaceOnUse">
<stop stop-color="#00B997"/>
<stop offset="1" stop-color="#FFB966"/>
</linearGradient>
<linearGradient id="paint4_linear_17049_106946" x1="114.009" y1="75.0371" x2="187.675" y2="75.0371" gradientUnits="userSpaceOnUse">
<stop stop-color="#00B997"/>
<stop offset="1" stop-color="#FFB966"/>
</linearGradient>
<clipPath id="clip0_17049_106946">
<rect width="300" height="190.909" fill="white"/>
</clipPath>
</defs>
</svg>
