<svg width="541" height="240" viewBox="0 0 541 240" fill="none" xmlns="http://www.w3.org/2000/svg">
<g clip-path="url(#clip0_613_3)">
<path d="M4 55.6H140.4V77.8H4V55.6ZM59 75H85.6V185H59V75ZM188.525 187.2C178.658 187.2 169.658 185.067 161.525 180.8C153.525 176.4 147.125 170.333 142.325 162.6C137.658 154.733 135.325 145.667 135.325 135.4C135.325 124.867 137.725 115.733 142.525 108C147.325 100.267 153.792 94.2667 161.925 90C170.192 85.6 179.525 83.4 189.925 83.4C201.392 83.4 210.592 85.7333 217.525 90.4C224.592 94.9333 229.725 101.133 232.925 109C236.125 116.867 237.725 125.667 237.725 135.4C237.725 141.267 236.792 147.267 234.925 153.4C233.058 159.4 230.192 165 226.325 170.2C222.458 175.267 217.392 179.4 211.125 182.6C204.858 185.667 197.325 187.2 188.525 187.2ZM196.925 167.2C204.792 167.2 211.592 165.867 217.325 163.2C223.058 160.533 227.458 156.8 230.525 152C233.592 147.2 235.125 141.667 235.125 135.4C235.125 128.6 233.525 122.867 230.325 118.2C227.258 113.4 222.858 109.8 217.125 107.4C211.525 104.867 204.792 103.6 196.925 103.6C185.858 103.6 177.258 106.533 171.125 112.4C164.992 118.133 161.925 125.8 161.925 135.4C161.925 141.8 163.392 147.4 166.325 152.2C169.258 156.867 173.325 160.533 178.525 163.2C183.858 165.867 189.992 167.2 196.925 167.2ZM235.125 85.6H261.125V185H236.925C236.925 185 236.725 183.733 236.325 181.2C236.058 178.533 235.792 175.2 235.525 171.2C235.258 167.2 235.125 163.267 235.125 159.4V85.6ZM397.256 85.6L345.656 141L308.456 185H276.656L330.456 126.8L365.656 85.6H397.256ZM276.656 85.6H308.456L346.056 126.4L400.056 185H368.256L329.656 141.6L276.656 85.6ZM470.209 187.4C457.676 187.4 446.609 185.4 437.009 181.4C427.543 177.4 420.143 171.6 414.809 164C409.476 156.267 406.809 146.8 406.809 135.6C406.809 124.4 409.476 114.933 414.809 107.2C420.143 99.3333 427.543 93.4 437.009 89.4C446.609 85.4 457.676 83.4 470.209 83.4C482.743 83.4 493.676 85.4 503.009 89.4C512.476 93.4 519.876 99.3333 525.209 107.2C530.543 114.933 533.209 124.4 533.209 135.6C533.209 146.8 530.543 156.267 525.209 164C519.876 171.6 512.476 177.4 503.009 181.4C493.676 185.4 482.743 187.4 470.209 187.4ZM470.209 167.4C477.143 167.4 483.343 166.2 488.809 163.8C494.409 161.267 498.809 157.667 502.009 153C505.209 148.2 506.809 142.4 506.809 135.6C506.809 128.8 505.209 123 502.009 118.2C498.809 113.267 494.476 109.533 489.009 107C483.543 104.467 477.276 103.2 470.209 103.2C463.276 103.2 457.009 104.467 451.409 107C445.809 109.533 441.343 113.2 438.009 118C434.809 122.8 433.209 128.667 433.209 135.6C433.209 142.4 434.809 148.2 438.009 153C441.209 157.667 445.609 161.267 451.209 163.8C456.809 166.2 463.143 167.4 470.209 167.4Z" fill="white"/>
</g>
<defs>
<clipPath id="clip0_613_3">
<rect width="541" height="240" fill="white"/>
</clipPath>
</defs>
</svg>
