<?xml version="1.0" encoding="UTF-8"?>
<svg xmlns="http://www.w3.org/2000/svg" width="19" height="19" viewBox="0 0 19 19" fill="none">
  <g clip-path="url(#clip0_113_782)">
    <path d="M16.5525 15.0746C13.781 18.566 8.34596 17.7022 7.08618 13.3469C7.0142 13.131 6.9782 12.879 6.94221 12.6631C9.8577 12.0152 12.7012 9.89154 12.9532 7.336C13.1691 5.0324 10.8295 4.34852 9.2818 5.64429C7.44612 7.19202 6.15035 9.45962 6.04237 11.8711C4.1707 12.1231 2.33502 11.6192 1.3272 9.7835C-0.364502 6.68811 1.9031 2.51279 4.92657 1.289C5.25051 1.18102 5.10653 0.677111 4.78259 0.785092C0.607327 1.97294 -1.55229 7.80391 1.29121 11.2592C2.40701 12.5911 4.20669 13.0229 6.07836 12.807C6.33032 15.2545 8.23798 17.1982 10.5055 17.9541C13.1331 18.8179 15.5446 17.5582 17.0924 15.5065C17.3444 15.1826 16.8044 14.7867 16.5525 15.0746ZM8.48994 7.80391C9.06584 7.01205 9.8217 6.11221 10.7935 5.78827C11.7293 5.46433 12.0533 6.7601 12.0892 7.336C12.1252 8.05587 11.6213 8.70375 11.1534 9.20767C10.1816 10.3234 8.56192 11.2953 6.90622 11.7272C7.0142 10.3234 7.69808 8.95571 8.48994 7.80391Z" fill="#FFB966"></path>
    <path d="M18.5675 13.7429C17.5597 13.7429 16.5159 13.8149 15.544 14.0669C15.1482 14.1748 15.3281 14.7147 15.7241 14.6428C16.5159 14.4988 17.3438 14.5348 18.1356 14.5708C18.0997 15.0386 18.0637 15.5425 17.9917 16.0105C17.9197 16.3704 17.6677 16.9103 17.8837 17.2702C17.9917 17.4503 18.1716 17.4503 18.3516 17.3782C18.7835 17.1983 18.7835 16.4424 18.8555 16.0465C18.9635 15.3985 18.9994 14.7867 18.9994 14.1387C18.9994 13.9229 18.7835 13.7429 18.5675 13.7429Z" fill="#FFB966"></path>
  </g>
  <defs>
    <clipPath id="clip0_113_782">
      <rect width="19" height="19" fill="white"></rect>
    </clipPath>
  </defs>
</svg>
