<svg width="101" height="53" viewBox="0 0 101 53" fill="none" xmlns="http://www.w3.org/2000/svg">
<path d="M0 51.7422C7.40343e-10 50.6217 3.49 50.6527 7.75 50.2527C21.05 49.0027 33.65 44.2227 41.24 37.5427L44.99 34.2427L41.5 28.2422C36.11 17.5122 37.64 3.37267 44.09 0.702674C46.38 -0.247326 47.64 -0.237326 50.03 0.752674C55.07 2.84267 57.5 6.54219 57.5 13.2422C57 19.7422 56.03 23.6622 51.5 30.2422L48 34.6027L50.6 36.6427C58.68 42.9927 76.2 37.8927 89.56 25.2927C96.13 19.1027 99 15.2422 94 17.4527C92.9 17.7427 92 17.4927 92 16.9027C92 15.8927 98.99 13.4027 99.74 14.1427C99.93 14.3427 100.36 16.1927 100.7 18.2727C101.14 21.0027 100.99 21.8527 100.16 21.3427C99.52 20.9427 99 19.0927 99 18.2727C99 17.4627 97.09 20.0127 94.74 22.8927C86.18 33.4027 71.47 41.1327 59.92 41.2027C54.32 41.2327 53 40.2422 49.89 38.6127L46.44 35.9827L41.88 39.6427C35.44 44.8027 24.3 49.6827 15.23 51.2927C6.28 52.8927 -9.11489e-10 53.1217 0 51.7422ZM53 23.7422C57.3243 14.5422 56.3116 7.24219 50.46 3.29267C46.5 1.74219 46 1.74219 42.92 4.32267C41 8.24219 41 8.24219 40.58 14.0727C40.64 19.7227 41.25 22.4727 43.42 27.0327C46.77 34.0527 48 34.1622 53 23.7422Z" fill="#056251"/>
</svg>
