<svg width="86" height="56" viewBox="0 0 86 56" fill="none" xmlns="http://www.w3.org/2000/svg">
<g clip-path="url(#clip0_404_12)">
<path d="M84 0C84.99 0.495 84.99 0.495 86 1C84.5727 6.07737 82.3564 9.99161 79.4375 14.3125C78.9928 14.9719 78.548 15.6312 78.0898 16.3105C67.5702 31.5371 56 40 34 46C34 46 19.5 49 12 49C12 48.34 12 46.68 12 46C12.5931 45.905 14.3889 45.5979 15 45.5C39.4851 41.5076 60.5153 34.9445 76 14C78.8834 9.45615 81.4629 4.74348 84 0Z" fill="currentColor"/>
<path d="M13 39C13 40 9.40073 45.1191 7 48C7.97453 48.6149 7.97453 48.6149 8.96875 49.2422C9.80406 49.781 10.6394 50.3198 11.5 50.875C12.3353 51.4087 13.1706 51.9423 14.0312 52.4922C14.6809 52.9898 15.3306 53.4873 16 54C16 54.66 16 55.32 16 56C12.3406 54.5684 8.76012 53.0107 5.1875 51.375C4.21168 50.929 3.23586 50.483 2.23047 50.0234C1.49441 49.6857 0.758359 49.348 0 49L2 46.5C2 46.5 3.75691 44.5954 5 43.5C5.93805 42.6734 6.46038 42.1946 7.5 41.5C9.46183 40.1893 12 39 13 39Z" fill="currentColor"/>
</g>
<defs>
<clipPath id="clip0_404_12">
<rect width="86" height="56" fill="currentColor"/>
</clipPath>
</defs>
</svg>
